<svg xmlns="http://www.w3.org/2000/svg" xmlns:xlink="http://www.w3.org/1999/xlink" width="77" height="77" viewBox="0 0 77 77">
    <defs>
        <linearGradient id="c" x1="481.321%" x2="21.756%" y1="423.931%" y2="13.553%">
            <stop offset="0%" stop-color="#9D26FF"/>
            <stop offset="24.603%" stop-color="#DE2AF7"/>
            <stop offset="47.122%" stop-color="#FF5FC4"/>
            <stop offset="63.16%" stop-color="#FBB888"/>
            <stop offset="79.636%" stop-color="#3984F8"/>
            <stop offset="100%" stop-color="#76FDFA"/>
        </linearGradient>
        <circle id="a" cx="36" cy="36" r="36"/>
        <filter id="b" width="113.9%" height="113.9%" x="-3.5%" y="-3.5%" filterUnits="objectBoundingBox">
            <feOffset dx="5" dy="5" in="SourceAlpha" result="shadowOffsetOuter1"/>
            <feColorMatrix in="shadowOffsetOuter1" values="0 0 0 0 0.238017083 0 0 0 0 0.284228567 0 0 0 0 0.526838861 0 0 0 0.181357563 0"/>
        </filter>
    </defs>
    <g fill="none" fill-rule="evenodd">
        <g>
            <use fill="#000" filter="url(#b)" xlink:href="#a"/>
            <use fill="url(#c)" xlink:href="#a"/>
        </g>
        <path fill="#FFF" d="M49 48.692v-4.38a3.729 3.729 0 0 0-.477-1.877 3.437 3.437 0 0 0-1.537-1.393 16.457 16.457 0 0 0-2.951-1.085l-3.843-1.016a2.03 2.03 0 0 1-1.484-1.639V35.34h.093s3.25.1 5.449-1.247a.77.77 0 0 0 .061-1.208c-.837-.693-1.944-2.309-1.598-5.772.538-5.387-.669-10.181-5.02-9.781 0 0-1.89-2.309-5.64-.847-1.292.493-4.75 1.732-4.612 9.235.108 4.718-.968 6.495-1.79 7.157a.77.77 0 0 0 .138 1.24 9.827 9.827 0 0 0 5.503 1.269V37.264a2.03 2.03 0 0 1-1.484 1.639l-3.843 1.016c-1.017.276-2.005.65-2.951 1.116a3.437 3.437 0 0 0-1.537 1.392A3.729 3.729 0 0 0 21 44.305v4.371c0 .731.592 1.324 1.322 1.324h25.363A1.323 1.323 0 0 0 49 48.692z"/>
    </g>
</svg>
