<svg xmlns="http://www.w3.org/2000/svg" xmlns:xlink="http://www.w3.org/1999/xlink" width="77" height="77" viewBox="0 0 77 77">
    <defs>
        <linearGradient id="c" x1="227.024%" x2="-48.839%" y1="177.197%" y2="-13.927%">
            <stop offset="0%" stop-color="#9D26FF"/>
            <stop offset="24.603%" stop-color="#DE2AF7"/>
            <stop offset="37.353%" stop-color="#FF5FC4"/>
            <stop offset="52.784%" stop-color="#FCA160"/>
            <stop offset="78.444%" stop-color="#9DFFFD"/>
            <stop offset="100%" stop-color="#6378E8"/>
        </linearGradient>
        <circle id="a" cx="36" cy="36" r="36"/>
        <filter id="b" width="113.9%" height="113.9%" x="-3.5%" y="-3.5%" filterUnits="objectBoundingBox">
            <feOffset dx="5" dy="5" in="SourceAlpha" result="shadowOffsetOuter1"/>
            <feColorMatrix in="shadowOffsetOuter1" values="0 0 0 0 0.0483966314 0 0 0 0 0.0624691743 0 0 0 0 0.215508078 0 0 0 0.213117074 0"/>
        </filter>
    </defs>
    <g fill="none" fill-rule="evenodd">
        <g>
            <use fill="#000" filter="url(#b)" xlink:href="#a"/>
            <use fill="url(#c)" xlink:href="#a"/>
        </g>
        <path fill="#FFF" d="M51 51.5v-5.023a4.29 4.29 0 0 0-.545-2.154 3.933 3.933 0 0 0-1.757-1.598 18.764 18.764 0 0 0-3.373-1.245l-4.392-1.165a2.326 2.326 0 0 1-1.695-1.88v-2.251h.106s3.715.115 6.227-1.43a.884.884 0 0 0 .07-1.386c-.957-.795-2.222-2.648-1.827-6.62.615-6.18-.764-11.68-5.735-11.22 0 0-2.161-2.649-6.448-.971-1.475.565-5.428 1.986-5.27 10.592.123 5.412-1.107 7.45-2.046 8.21a.885.885 0 0 0 .158 1.421 11.198 11.198 0 0 0 6.289 1.457v2.153a2.326 2.326 0 0 1-1.695 1.88l-4.392 1.166a18.73 18.73 0 0 0-3.373 1.28 3.933 3.933 0 0 0-1.757 1.598A4.29 4.29 0 0 0 19 46.468v5.014c0 .838.677 1.518 1.511 1.518h28.987A1.515 1.515 0 0 0 51 51.5z"/>
    </g>
</svg>
