<?xml version="1.0" encoding="UTF-8"?>
<svg width="77px" height="77px" viewBox="0 0 77 77" version="1.1" xmlns="http://www.w3.org/2000/svg" xmlns:xlink="http://www.w3.org/1999/xlink">
    <!-- Generator: Sketch 46.2 (44496) - http://www.bohemiancoding.com/sketch -->
    <title>blue-orange-icon</title>
    <desc>Created with Sketch.</desc>
    <defs>
        <linearGradient x1="227.023655%" y1="177.197266%" x2="-48.8389757%" y2="-13.9268663%" id="linearGradient-1">
            <stop stop-color="#9D26FF" offset="0%"></stop>
            <stop stop-color="#DE2AF7" offset="24.603396%"></stop>
            <stop stop-color="#FF5FC4" offset="37.3532362%"></stop>
            <stop stop-color="#FCA160" offset="52.7838417%"></stop>
            <stop stop-color="#9DFFFD" offset="78.4438776%"></stop>
            <stop stop-color="#6378E8" offset="100%"></stop>
        </linearGradient>
        <circle id="path-2" cx="36" cy="36" r="36"></circle>
        <filter x="-3.5%" y="-3.5%" width="113.9%" height="113.9%" filterUnits="objectBoundingBox" id="filter-4">
            <feOffset dx="5" dy="5" in="SourceAlpha" result="shadowOffsetOuter1"></feOffset>
            <feColorMatrix values="0 0 0 0 0.0483966314   0 0 0 0 0.0624691743   0 0 0 0 0.215508078  0 0 0 0.213117074 0" type="matrix" in="shadowOffsetOuter1"></feColorMatrix>
        </filter>
    </defs>
    <g id="Page-1" stroke="none" stroke-width="1" fill="none" fill-rule="evenodd">
        <g id="Website" transform="translate(-974.000000, -3150.000000)">
            <g id="blue-orange-icon" transform="translate(974.000000, 3150.000000)">
                <mask id="mask-3" fill="white">
                    <use xlink:href="#path-2"></use>
                </mask>
                <g id="Mask">
                    <use fill="black" fill-opacity="1" filter="url(#filter-4)" xlink:href="#path-2"></use>
                    <use fill="url(#linearGradient-1)" fill-rule="evenodd" xlink:href="#path-2"></use>
                </g>
                <g id="Group" mask="url(#mask-3)" fill-rule="nonzero" fill="#FFFFFF">
                    <g transform="translate(12.000000, 12.000000)">
                        <circle id="Oval" cx="34" cy="24" r="1"></circle>
                        <circle id="Oval" cx="16" cy="24" r="1"></circle>
                        <circle id="Oval" cx="11" cy="32" r="1"></circle>
                        <circle id="Oval" cx="39" cy="16" r="1"></circle>
                        <circle id="Oval" cx="11" cy="10" r="1"></circle>
                        <circle id="Oval" cx="8" cy="12" r="1"></circle>
                        <circle id="Oval" cx="15" cy="8" r="1"></circle>
                        <circle id="Oval" cx="19" cy="8" r="1"></circle>
                        <circle id="Oval" cx="24" cy="8" r="1"></circle>
                        <circle id="Oval" cx="39" cy="38" r="1"></circle>
                        <circle id="Oval" cx="42" cy="35" r="1"></circle>
                        <circle id="Oval" cx="35" cy="40" r="1"></circle>
                        <circle id="Oval" cx="31" cy="40" r="1"></circle>
                        <circle id="Oval" cx="26" cy="40" r="1"></circle>
                        <path d="M27.5833333,12.4697509 L33.4166667,15.886121 C33.5333333,16 33.7666667,16 34,16 C34.2333333,16 34.4666667,16 34.5833333,15.886121 L40.4166667,12.4697509 C40.7666667,12.2419929 41,11.9003559 41,11.4448399 L41,4.61209964 C41,4.15658363 40.7666667,3.81494662 40.4166667,3.58718861 L34.5833333,0.170818505 C34.2333333,-0.0569395018 33.7666667,-0.0569395018 33.4166667,0.170818505 L27.5833333,3.58718861 C27.2333333,3.81494662 27,4.15658363 27,4.61209964 L27,11.4448399 C27,11.9003559 27.2333333,12.2419929 27.5833333,12.4697509 Z M38.6666667,10.7615658 L35.1666667,12.8113879 L35.1666667,8.71174377 L38.6666667,6.66192171 L38.6666667,10.7615658 Z M34,2.56227758 L37.6166667,4.61209964 L34,6.66192171 L30.3833333,4.61209964 L34,2.56227758 Z M29.3333333,6.66192171 L32.8333333,8.71174377 L32.8333333,12.9252669 L29.3333333,10.8754448 L29.3333333,6.66192171 Z" id="Shape"></path>
                        <path d="M49.4166667,19.5871886 L43.5833333,16.1708185 C43.2333333,15.9430605 42.7666667,15.9430605 42.4166667,16.1708185 L36.5833333,19.5871886 C36.2333333,19.8149466 36,20.1565836 36,20.6120996 L36,27.4448399 C36,27.9003559 36.2333333,28.2419929 36.5833333,28.4697509 L42.4166667,31.886121 C42.5333333,32 42.7666667,32 43,32 C43.2333333,32 43.4666667,32 43.5833333,31.886121 L49.4166667,28.4697509 C49.7666667,28.2419929 50,27.9003559 50,27.4448399 L50,20.6120996 C50,20.1565836 49.7666667,19.8149466 49.4166667,19.5871886 Z M41.8333333,28.8113879 L38.3333333,26.7615658 L38.3333333,22.5480427 L41.8333333,24.5978648 L41.8333333,28.8113879 Z M43,22.6619217 L39.3833333,20.6120996 L43,18.5622776 L46.6166667,20.6120996 L43,22.6619217 Z M47.6666667,26.7615658 L44.1666667,28.8113879 L44.1666667,24.5978648 L47.6666667,22.5480427 L47.6666667,26.7615658 Z" id="Shape"></path>
                        <path d="M22.4166667,35.5871886 L16.5833333,32.1708185 C16.2333333,31.9430605 15.7666667,31.9430605 15.4166667,32.1708185 L9.58333333,35.5871886 C9.23333333,35.8149466 9,36.1565836 9,36.6120996 L9,43.4448399 C9,43.9003559 9.23333333,44.2419929 9.58333333,44.4697509 L15.4166667,47.886121 C15.5333333,48 15.7666667,48 16,48 C16.2333333,48 16.4666667,48 16.5833333,47.886121 L22.4166667,44.4697509 C22.7666667,44.2419929 23,43.9003559 23,43.4448399 L23,36.6120996 C23,36.1565836 22.7666667,35.8149466 22.4166667,35.5871886 Z M14.8333333,44.8113879 L11.3333333,42.7615658 L11.3333333,38.5480427 L14.8333333,40.5978648 L14.8333333,44.8113879 Z M16,38.6619217 L12.3833333,36.6120996 L16,34.5622776 L19.6166667,36.6120996 L16,38.6619217 Z M20.6666667,42.7615658 L17.1666667,44.8113879 L17.1666667,40.5978648 L20.6666667,38.5480427 L20.6666667,42.7615658 Z" id="Shape"></path>
                        <path d="M31.4166667,19.5871886 L25.5833333,16.1708185 C25.2333333,15.9430605 24.7666667,15.9430605 24.4166667,16.1708185 L18.5833333,19.5871886 C18.2333333,19.8149466 18,20.1565836 18,20.6120996 L18,27.4448399 C18,27.9003559 18.2333333,28.2419929 18.5833333,28.4697509 L24.4166667,31.886121 C24.5333333,32 24.7666667,32 25,32 C25.2333333,32 25.4666667,32 25.5833333,31.886121 L31.4166667,28.4697509 C31.7666667,28.2419929 32,27.9003559 32,27.4448399 L32,20.6120996 C32,20.1565836 31.7666667,19.8149466 31.4166667,19.5871886 Z M23.8333333,28.8113879 L20.3333333,26.7615658 L20.3333333,22.5480427 L23.8333333,24.5978648 L23.8333333,28.8113879 Z M25,22.6619217 L21.3833333,20.6120996 L25,18.5622776 L28.6166667,20.6120996 L25,22.6619217 Z M29.6666667,26.7615658 L26.1666667,28.8113879 L26.1666667,24.5978648 L29.6666667,22.5480427 L29.6666667,26.7615658 Z" id="Shape"></path>
                        <path d="M14,27.4448399 L14,20.6120996 C14,20.1565836 13.7666667,19.8149466 13.4166667,19.5871886 L7.58333333,16.1708185 C7.23333333,15.9430605 6.76666667,15.9430605 6.41666667,16.1708185 L0.583333333,19.5871886 C0.233333333,19.8149466 0,20.1565836 0,20.6120996 L0,27.4448399 C0,27.9003559 0.233333333,28.2419929 0.583333333,28.4697509 L6.41666667,31.886121 C6.53333333,32 6.76666667,32 7,32 C7.23333333,32 7.46666667,32 7.58333333,31.886121 L13.4166667,28.4697509 C13.7666667,28.2419929 14,27.9003559 14,27.4448399 Z M5.83333333,28.8113879 L2.33333333,26.7615658 L2.33333333,22.5480427 L5.83333333,24.5978648 L5.83333333,28.8113879 Z M7,22.6619217 L3.38333333,20.6120996 L7,18.5622776 L10.6166667,20.6120996 L7,22.6619217 Z M11.6666667,26.7615658 L8.16666667,28.8113879 L8.16666667,24.5978648 L11.6666667,22.5480427 L11.6666667,26.7615658 Z" id="Shape"></path>
                    </g>
                </g>
            </g>
        </g>
    </g>
</svg>