<svg xmlns="http://www.w3.org/2000/svg" width="222" height="529" viewBox="0 0 222 529">
    <g fill="none" fill-rule="evenodd" stroke="#ECB19D" stroke-width="3">
        <g transform="translate(20 24)">
            <circle cx="28.5" cy="174.5" r="4.5"/>
            <circle cx="54.5" cy="152.5" r="4.5"/>
            <circle cx="91.5" cy="140.5" r="4.5"/>
            <circle cx="83.5" cy="178.5" r="4.5"/>
            <circle cx="33.5" cy="130.5" r="4.5"/>
            <circle cx="65" cy="120" r="5"/>
            <circle cx="93" cy="85" r="5"/>
            <circle cx="24.5" cy="95.5" r="4.5"/>
            <circle cx="52.5" cy="78.5" r="4.5"/>
            <circle cx="76.5" cy="48.5" r="4.5"/>
            <circle cx="5.5" cy="33.5" r="4.5"/>
            <circle cx="21.5" cy="4.5" r="4.5"/>
            <circle cx="43.5" cy="30.5" r="4.5"/>
            <circle cx="73.5" cy="11.5" r="4.5"/>
            <circle cx="29.5" cy="61.5" r="4.5"/>
            <circle cx="11.5" cy="203.5" r="4.5"/>
            <circle cx="4.5" cy="242.5" r="4.5"/>
            <circle cx="38.5" cy="230.5" r="4.5"/>
            <circle cx="59.5" cy="200.5" r="4.5"/>
            <circle cx="8.5" cy="149.5" r="4.5"/>
        </g>
        <g transform="translate(-78 28)">
            <circle cx="91.5" cy="140.5" r="4.5"/>
            <circle cx="83.5" cy="178.5" r="4.5"/>
            <circle cx="93" cy="85" r="5"/>
            <circle cx="76.5" cy="48.5" r="4.5"/>
        </g>
        <g transform="translate(122 2)">
            <circle cx="28.5" cy="174.5" r="4.5"/>
            <circle cx="54.5" cy="152.5" r="4.5"/>
            <circle cx="91.5" cy="140.5" r="4.5"/>
            <circle cx="83.5" cy="178.5" r="4.5"/>
            <circle cx="33.5" cy="130.5" r="4.5"/>
            <circle cx="65" cy="120" r="5"/>
            <circle cx="93" cy="85" r="5"/>
            <circle cx="24.5" cy="95.5" r="4.5"/>
            <circle cx="52.5" cy="78.5" r="4.5"/>
            <circle cx="76.5" cy="48.5" r="4.5"/>
            <circle cx="5.5" cy="33.5" r="4.5"/>
            <circle cx="21.5" cy="4.5" r="4.5"/>
            <circle cx="43.5" cy="30.5" r="4.5"/>
            <circle cx="73.5" cy="11.5" r="4.5"/>
            <circle cx="29.5" cy="61.5" r="4.5"/>
            <circle cx="11.5" cy="203.5" r="4.5"/>
            <circle cx="4.5" cy="242.5" r="4.5"/>
            <circle cx="38.5" cy="230.5" r="4.5"/>
            <circle cx="59.5" cy="200.5" r="4.5"/>
            <circle cx="8.5" cy="149.5" r="4.5"/>
        </g>
        <g>
            <g transform="translate(-20 292)">
                <circle cx="28.5" cy="174.5" r="4.5"/>
                <circle cx="54.5" cy="152.5" r="4.5"/>
                <circle cx="91.5" cy="140.5" r="4.5"/>
                <circle cx="83.5" cy="178.5" r="4.5"/>
                <circle cx="33.5" cy="130.5" r="4.5"/>
                <circle cx="65" cy="120" r="5"/>
                <circle cx="93" cy="85" r="5"/>
                <circle cx="24.5" cy="95.5" r="4.5"/>
                <circle cx="52.5" cy="78.5" r="4.5"/>
                <circle cx="76.5" cy="48.5" r="4.5"/>
                <circle cx="21.5" cy="4.5" r="4.5"/>
                <circle cx="43.5" cy="30.5" r="4.5"/>
                <circle cx="73.5" cy="11.5" r="4.5"/>
                <circle cx="29.5" cy="61.5" r="4.5"/>
                <circle cx="38.5" cy="230.5" r="4.5"/>
                <circle cx="59.5" cy="200.5" r="4.5"/>
            </g>
            <g transform="translate(82 270)">
                <circle cx="28.5" cy="174.5" r="4.5"/>
                <circle cx="54.5" cy="152.5" r="4.5"/>
                <circle cx="91.5" cy="140.5" r="4.5"/>
                <circle cx="83.5" cy="178.5" r="4.5"/>
                <circle cx="33.5" cy="130.5" r="4.5"/>
                <circle cx="65" cy="120" r="5"/>
                <circle cx="93" cy="85" r="5"/>
                <circle cx="24.5" cy="95.5" r="4.5"/>
                <circle cx="52.5" cy="78.5" r="4.5"/>
                <circle cx="76.5" cy="48.5" r="4.5"/>
                <circle cx="5.5" cy="33.5" r="4.5"/>
                <circle cx="21.5" cy="4.5" r="4.5"/>
                <circle cx="43.5" cy="30.5" r="4.5"/>
                <circle cx="73.5" cy="11.5" r="4.5"/>
                <circle cx="29.5" cy="61.5" r="4.5"/>
                <circle cx="11.5" cy="203.5" r="4.5"/>
                <circle cx="4.5" cy="242.5" r="4.5"/>
                <circle cx="38.5" cy="230.5" r="4.5"/>
                <circle cx="59.5" cy="200.5" r="4.5"/>
                <circle cx="8.5" cy="149.5" r="4.5"/>
            </g>
        </g>
    </g>
</svg>
