<svg xmlns="http://www.w3.org/2000/svg" xmlns:xlink="http://www.w3.org/1999/xlink" width="23" height="20" viewBox="0 0 23 20">
    <defs>
        <linearGradient id="c" x1="17.656%" x2="124.085%" y1="0%" y2="136.358%">
            <stop offset="0%" stop-color="#FD9D9A"/>
            <stop offset="36.148%" stop-color="#E130F1"/>
            <stop offset="71.738%" stop-color="#B428FC"/>
            <stop offset="100%" stop-color="#BDDFDA"/>
        </linearGradient>
        <path id="b" d="M1 17h21a1 1 0 0 0 1-1V1a1 1 0 0 0-1-1H1a1 1 0 0 0-1 1v15a1 1 0 0 0 1 1z"/>
        <filter id="a" width="113%" height="135.3%" x="-6.5%" y="-8.8%" filterUnits="objectBoundingBox">
            <feOffset dy="3" in="SourceAlpha" result="shadowOffsetOuter1"/>
            <feColorMatrix in="shadowOffsetOuter1" values="0 0 0 0 0 0 0 0 0 0 0 0 0 0 0 0 0 0 0.137426404 0"/>
        </filter>
    </defs>
    <g fill="none" fill-rule="evenodd">
        <g>
            <use fill="#000" filter="url(#a)" xlink:href="#b"/>
            <use fill="url(#c)" xlink:href="#b"/>
        </g>
        <path fill="#3A429F" d="M15.53 8.5l6.24-6.169a.774.774 0 0 0 0-1.103.797.797 0 0 0-1.117 0l-7.65 7.564a2.144 2.144 0 0 1-3.005 0L2.347 1.228a.797.797 0 0 0-1.116 0 .774.774 0 0 0 0 1.103L7.47 8.5l-6.24 6.168a.774.774 0 0 0 0 1.104.815.815 0 0 0 1.116 0l6.24-6.17.295.293a3.699 3.699 0 0 0 2.618 1.07c.99 0 1.92-.38 2.618-1.07l.295-.292 6.24 6.169c.15.147.347.228.558.228.21 0 .409-.081.558-.228a.774.774 0 0 0 0-1.104L15.53 8.5z"/>
    </g>
</svg>
