<svg xmlns="http://www.w3.org/2000/svg" width="19" height="19" viewBox="0 0 19 19">
    <path fill="#C0CAD6" fill-rule="evenodd" d="M13.162 18.997v-7.328h2.458l.376-2.898c-.134-.014-.247-.034-.36-.035-.734-.003-1.468-.01-2.2.003-.231.004-.302-.072-.293-.299.026-.65-.003-1.302.057-1.948.052-.56.404-.854.977-.884.54-.028 1.081-.025 1.622-.018.227.003.305-.075.301-.301-.01-.697-.003-1.394-.005-2.09 0-.127.016-.258-.18-.274-1.076-.09-2.159-.23-3.224.041-1.415.36-2.264 1.306-2.473 2.733-.126.864-.08 1.753-.104 2.63-.01.404-.002.405-.41.405-.595 0-1.191.008-1.787-.003-.226-.004-.303.074-.3.302.012.789.01 1.577.001 2.365-.002.202.058.272.266.269.65-.012 1.302.001 1.953-.009.192-.003.28.037.28.254-.007 2.283-.006 4.565-.003 6.848 0 .172-.05.24-.235.24-2.952-.005-5.905 0-8.857-.007-.566 0-1.002-.451-1.018-1.018-.008-.302-.001-.605-.001-.907V1.198C.003.407.409 0 1.203 0h16.612C18.591 0 19 .41 19 1.186v16.64c0 .754-.417 1.17-1.173 1.17h-4.665z"/>
</svg>
