<?xml version="1.0" encoding="UTF-8"?>
<svg width="77px" height="77px" viewBox="0 0 77 77" version="1.1" xmlns="http://www.w3.org/2000/svg" xmlns:xlink="http://www.w3.org/1999/xlink">
    <!-- Generator: Sketch 46.2 (44496) - http://www.bohemiancoding.com/sketch -->
    <title>Group 14</title>
    <desc>Created with Sketch.</desc>
    <defs>
        <linearGradient x1="124.018012%" y1="132.052951%" x2="-60.5685764%" y2="-59.7764757%" id="linearGradient-1">
            <stop stop-color="#9D26FF" offset="0%"></stop>
            <stop stop-color="#DE2AF7" offset="24.603396%"></stop>
            <stop stop-color="#FF5FC4" offset="47.1221301%"></stop>
            <stop stop-color="#FBB888" offset="63.1596779%"></stop>
            <stop stop-color="#9DFFFD" offset="78.4438776%"></stop>
            <stop stop-color="#6378E8" offset="100%"></stop>
        </linearGradient>
        <circle id="path-2" cx="36" cy="36" r="36"></circle>
        <filter x="-3.5%" y="-3.5%" width="113.9%" height="113.9%" filterUnits="objectBoundingBox" id="filter-4">
            <feOffset dx="5" dy="5" in="SourceAlpha" result="shadowOffsetOuter1"></feOffset>
            <feColorMatrix values="0 0 0 0 0.0483966314   0 0 0 0 0.0624691743   0 0 0 0 0.215508078  0 0 0 0.213117074 0" type="matrix" in="shadowOffsetOuter1"></feColorMatrix>
        </filter>
    </defs>
    <g id="Page-1" stroke="none" stroke-width="1" fill="none" fill-rule="evenodd">
        <g id="Website" transform="translate(-278.000000, -3127.000000)">
            <g id="Group-14" transform="translate(278.000000, 3127.000000)">
                <g id="Oval-3">
                    <mask id="mask-3" fill="white">
                        <use xlink:href="#path-2"></use>
                    </mask>
                    <g id="Mask">
                        <use fill="black" fill-opacity="1" filter="url(#filter-4)" xlink:href="#path-2"></use>
                        <use fill="url(#linearGradient-1)" fill-rule="evenodd" xlink:href="#path-2"></use>
                    </g>
                </g>
                <g id="Group-11" transform="translate(15.000000, 15.000000)" fill-rule="nonzero" fill="#FFFFFF">
                    <path d="M29,8.55899782 C29.4305375,8.87930138 29.841505,9.22798628 30.2315049,9.6050525 C31.2687088,10.6078594 32.1018267,11.755276 32.709891,13 L37.5156956,8.35357106 C37.6610718,8.21301591 37.881932,8.17787712 38.066448,8.2643726 C38.2537598,8.35221957 38.4508565,8.41979416 38.6521467,8.46574488 C38.853437,8.5116956 39.0603186,8.53467096 39.2658024,8.53467096 C39.9884903,8.53467096 40.6734362,8.25761514 41.1948339,7.75350868 C41.7134358,7.25210521 41.998597,6.58717122 41.9999949,5.88034099 C42.0013927,5.17351076 41.7176294,4.50857678 41.2004253,4.00852479 C40.684619,3.5111758 39.9982752,3.23817445 39.2699959,3.23817445 C39.232254,3.23817445 39.1931142,3.23817445 39.1539745,3.23952594 C39.019781,3.24493191 38.889781,3.1962782 38.7947273,3.10437675 C38.6996736,3.01247531 38.649351,2.88678657 38.6549424,2.75704335 C38.6870929,2.00696538 38.4019318,1.30283813 37.8553728,0.773053332 C37.3395666,0.274352843 36.6560185,0 35.929137,0 C35.1966642,0 34.5075247,0.277055827 33.9875249,0.779810791 C33.5751595,1.17850088 33.3081703,1.67855286 33.2159123,2.22320408 C33.1250521,2.76244932 33.2089231,3.30845202 33.459138,3.80444953 C33.5499982,3.98284645 33.5122563,4.19638216 33.36688,4.33693731 L29,8.55899782 Z" id="Shape"></path>
                    <path d="M41.2806866,34.6508902 C40.9129267,34.2727971 40.4516686,34.0279978 39.9492712,33.9434075 C39.453107,33.8600988 38.9482163,33.9382808 38.4906981,34.1689817 C38.3261412,34.2522903 38.1291715,34.2176852 37.9995205,34.0843913 L33.0553318,29 C32.6476793,29.3024745 32.1490219,29.4806269 31.6092252,29.4806269 L30.6156502,29.4806269 C29.8240315,29.4806269 29.1807633,30.1419694 29.1807633,30.9558309 C29.1807633,30.978901 29.1795167,31.0019711 29.1770234,31.0237595 L29,32.4412883 L30.2254507,33.7011715 C30.2254507,33.7011715 30.2254507,33.6998898 30.2254507,33.6998898 L34.2994822,37.8883927 C34.4291331,38.0216866 34.4615458,38.2241907 34.3817606,38.3933713 C34.2184503,38.7355777 34.1324319,39.1162341 34.1324319,39.4930456 C34.1324319,40.1556698 34.3879939,40.7836889 34.8529919,41.2617524 C35.3142501,41.7372526 35.9275988,41.9987136 36.5783468,41.9999953 C37.2303414,42.001277 37.8436901,41.7410976 38.3049482,41.2668791 C38.7649597,40.7939423 39.0180284,40.1646415 39.0180284,39.4930456 C39.0180284,39.4584405 39.0180284,39.4225537 39.0155351,39.3866668 C39.0155351,39.3802585 39.0155351,39.3751318 39.0155351,39.3687234 C39.0155351,39.2520913 39.0604143,39.1405859 39.1401995,39.0572772 C39.2249712,38.9701236 39.3409091,38.9239834 39.4605869,38.9291101 C40.142501,38.9585885 40.8082087,38.6907192 41.2869198,38.1959939 C41.7469313,37.7230571 42,37.095038 42,36.4285687 C42,35.7595361 41.7444381,35.127672 41.2806866,34.6508902 Z" id="Shape"></path>
                    <path d="M30.8671667,29.2152316 C31.6610408,29.2152316 32.3061416,28.5531778 32.3061416,27.7384411 C32.3061416,27.7256106 32.3061416,27.711497 32.3073918,27.6973835 L33,18.4119507 C32.9949992,15.6328644 31.937334,13.0205746 30.0232849,11.0562251 C28.1029848,9.08546029 25.5513361,8 22.8359119,8 L19.1640881,8 C16.4486639,8 13.895765,9.08546029 11.9767151,11.054942 C10.0614158,13.0205746 9.00375059,15.6328644 9,18.4106676 L9.69260822,27.6961004 C9.69385842,27.7089309 9.69385842,27.7230445 9.69385842,27.737158 C9.69385842,28.5518948 10.3389592,29.2139486 11.1328333,29.2139486 L12.1279887,29.2139486 C13.4844507,29.2139486 14.5896234,30.3366173 14.6083763,31.7235944 L14.9509298,34.4552078 C14.9546804,34.4783027 14.9559306,34.5013976 14.9559306,34.5232095 C14.9559306,35.3379462 15.6010314,36 16.3949055,36 L18.120175,36 L18.120175,34.7438941 C18.120175,34.4487926 18.3539616,34.2101453 18.6402563,34.2101453 C18.9278012,34.2101453 19.1603376,34.4487926 19.1603376,34.7438941 L19.1603376,36 L22.8371621,36 L22.8371621,34.7438941 C22.8371621,34.4487926 23.0709486,34.2101453 23.3572433,34.2101453 C23.6447882,34.2101453 23.8773246,34.4487926 23.8773246,34.7438941 L23.8773246,36 L25.6025942,36 C26.3964682,36 27.041569,35.3379462 27.041569,34.5232095 C27.041569,34.5001146 27.0428192,34.4770197 27.0453196,34.4552078 L27.3891233,31.7235944 C27.4078762,30.3366173 28.5130489,29.2139486 29.8695109,29.2139486 L30.8671667,29.2139486 L30.8671667,29.2152316 Z M16.2136271,26.5888283 C14.0357868,26.5888283 12.2630098,24.7707465 12.2630098,22.5343903 C12.2630098,20.2993172 14.0345366,18.4812354 16.2136271,18.4812354 C18.3914674,18.4812354 20.1642444,20.2993172 20.1642444,22.5343903 C20.1629942,24.7707465 18.3914674,26.5888283 16.2136271,26.5888283 Z M20.315518,30.0658938 C20.2292546,30.17367 20.1029848,30.2365394 19.9654634,30.2365394 L19.4378809,30.2365394 C19.3016096,30.2365394 19.1740897,30.174953 19.0890764,30.0658938 C19.0028129,29.9581176 18.9703079,29.8169821 18.9978122,29.6809788 L19.2553524,28.4146084 C19.297859,28.2016221 19.4841381,28.0476561 19.6954212,28.0476561 L19.7079231,28.0476561 C19.9192061,28.0476561 20.1054852,28.2029052 20.1479919,28.4146084 L20.4055321,29.6809788 C20.4342866,29.8169821 20.4005313,29.9581176 20.315518,30.0658938 Z M22.9121738,30.0658938 C22.8259103,30.17367 22.6996406,30.2365394 22.5633693,30.2365394 L22.0345366,30.2365394 C21.8982654,30.2365394 21.7707454,30.174953 21.6857321,30.0658938 C21.5994687,29.9581176 21.5669636,29.8169821 21.5944679,29.6809788 L21.8520081,28.4146084 C21.8945148,28.2016221 22.0807939,28.0476561 22.2920769,28.0476561 L22.3045788,28.0476561 C22.517112,28.0476561 22.702141,28.2029052 22.7446476,28.4146084 L23.0021878,29.6809788 C23.0309423,29.8169821 22.9984373,29.9581176 22.9121738,30.0658938 Z M25.7876231,26.5888283 C23.6097828,26.5888283 21.8370058,24.7707465 21.8370058,22.5343903 C21.8370058,20.2993172 23.6085326,18.4812354 25.7876231,18.4812354 C27.9654634,18.4812354 29.7382404,20.2993172 29.7382404,22.5343903 C29.7369902,24.7707465 27.9654634,26.5888283 25.7876231,26.5888283 Z" id="Shape"></path>
                    <path d="M12.8166731,30.9530757 C12.8166731,30.1392942 12.1731584,29.4780166 11.3812362,29.4780166 L10.3885274,29.4780166 C9.85101799,29.4780166 9.35216936,29.2998817 8.94560772,29 L4.00077063,34.0813289 C3.87106999,34.2146096 3.67402478,34.2479298 3.50940473,34.1659109 C3.17642327,33.9980284 2.80602815,33.9096017 2.43937441,33.9096017 C1.79461255,33.9096017 1.18352297,34.1723186 0.718346619,34.6503352 C0.255664511,35.1245071 0.00125170727,35.7550276 4.58568544e-06,36.425276 C-0.0012425359,37.0955244 0.251923146,37.726045 0.713358133,38.2002169 C1.173546,38.6731073 1.7858827,38.933261 2.43812729,38.933261 C2.47179957,38.933261 2.50671897,38.9319795 2.54163838,38.9306979 C2.54787399,38.9306979 2.55410959,38.9306979 2.55909808,38.9306979 C2.67258614,38.9306979 2.78108572,38.9768336 2.86214863,39.0601341 C2.94695289,39.1472792 2.99184927,39.2664629 2.98686078,39.3894913 C2.95817699,40.0904968 3.2188254,40.7748423 3.70021433,41.2669558 C4.1604022,41.7398462 4.77149177,42 5.419995,42 C6.07348671,42 6.68831765,41.7372831 7.15224688,41.2605481 C7.52014775,40.8824921 7.75834797,40.4096017 7.840658,39.8918573 C7.9217209,39.3805205 7.84564648,38.862776 7.6211646,38.3924487 C7.5401017,38.2232847 7.57377398,38.0208005 7.70347462,37.8875197 L11.8663665,33.60972 L13,32.444795 L12.8216616,31.0222792 C12.8191674,30.9992114 12.8166731,30.9761435 12.8166731,30.9530757 Z" id="Shape"></path>
                    <path d="M2.29691365,8.49989771 C2.85331756,8.58779033 3.41950747,8.50665868 3.93257339,8.26326372 C4.11710937,8.1753711 4.33799333,8.21188034 4.48338531,8.35250854 L9.28831057,13 C9.89644048,11.7559813 10.7282503,10.6079685 11.7655662,9.60599256 C12.1570061,9.22737819 12.5694161,8.87851208 13,8.55668986 L8.63824067,4.33784396 C8.49284869,4.19721577 8.4565007,3.98356908 8.54597269,3.80507945 C8.63684267,3.62388543 8.70814066,3.43322604 8.75427465,3.23851008 C8.80180665,3.04379411 8.82557264,2.84366937 8.82557264,2.64489683 C8.82557264,1.94581242 8.53898269,1.28323727 8.01752877,0.778868831 C7.49887085,0.277204783 6.81105495,0.00135716624 6.07990106,4.97203907e-06 C5.34874718,-0.00134722216 4.66093128,0.2731482 4.14367136,0.773460054 C3.62920744,1.27241971 3.34681149,1.93634706 3.34681149,2.64084024 C3.34681149,2.67870168 3.34820948,2.71521092 3.34960748,2.75307236 C3.35519948,2.8842352 3.30487149,3.00998926 3.20980751,3.10058627 C3.11474352,3.19253548 2.98472954,3.24121447 2.85052156,3.23580569 C2.07463168,3.20470522 1.34627379,3.47920065 0.798257877,4.00926077 C0.282395957,4.50822043 0,5.16944339 0,5.87393657 C0,6.58248633 0.286589956,7.24911807 0.806645876,7.75213431 C1.21625981,8.1523838 1.73212173,8.41065289 2.29691365,8.49989771 Z" id="Shape"></path>
                </g>
            </g>
        </g>
    </g>
</svg>