<svg xmlns="http://www.w3.org/2000/svg" width="14" height="19" viewBox="0 0 14 19">
    <path fill="#B14DDB" fill-rule="evenodd" d="M7.256 8.83c-1.084.395-2.29-.184-2.694-1.294-.404-1.109.148-2.328 1.232-2.723 1.084-.394 2.29.185 2.695 1.294.403 1.11-.149 2.329-1.233 2.723m5.375-4.196C11.37 1.175 7.63-.64 4.264.568l-.013.005-.014.005C.882 1.816-.817 5.612.442 9.07c0 0 .257 1.547 3.35 4.21 2.089 1.799 4.814 3.702 6.363 4.75l.594.397.2-.686c.514-1.799 1.378-5.008 1.821-7.729.657-4.028-.14-5.378-.14-5.378"/>
</svg>
