<?xml version="1.0" encoding="UTF-8"?>
<svg width="77px" height="77px" viewBox="0 0 77 77" version="1.1" xmlns="http://www.w3.org/2000/svg" xmlns:xlink="http://www.w3.org/1999/xlink">
    <!-- Generator: Sketch 46.2 (44496) - http://www.bohemiancoding.com/sketch -->
    <title>Oval 3 Copy</title>
    <desc>Created with Sketch.</desc>
    <defs>
        <linearGradient x1="88.8183594%" y1="74.7070312%" x2="-91.8294271%" y2="-109.559462%" id="linearGradient-1">
            <stop stop-color="#7C25C4" offset="0%"></stop>
            <stop stop-color="#C114DA" offset="30.4469438%"></stop>
            <stop stop-color="#FF5FC4" offset="47.1221301%"></stop>
            <stop stop-color="#FBB888" offset="63.1596779%"></stop>
            <stop stop-color="#9DFFFD" offset="78.4438776%"></stop>
            <stop stop-color="#6378E8" offset="100%"></stop>
        </linearGradient>
        <circle id="path-2" cx="36" cy="36" r="36"></circle>
        <filter x="-3.5%" y="-3.5%" width="113.9%" height="113.9%" filterUnits="objectBoundingBox" id="filter-4">
            <feOffset dx="5" dy="5" in="SourceAlpha" result="shadowOffsetOuter1"></feOffset>
            <feColorMatrix values="0 0 0 0 0.0483966314   0 0 0 0 0.0624691743   0 0 0 0 0.215508078  0 0 0 0.213117074 0" type="matrix" in="shadowOffsetOuter1"></feColorMatrix>
        </filter>
    </defs>
    <g id="Page-1" stroke="none" stroke-width="1" fill="none" fill-rule="evenodd">
        <g id="Website" transform="translate(-278.000000, -3306.000000)">
            <g id="Oval-3-Copy" transform="translate(278.000000, 3306.000000)">
                <mask id="mask-3" fill="white">
                    <use xlink:href="#path-2"></use>
                </mask>
                <g id="Mask">
                    <use fill="black" fill-opacity="1" filter="url(#filter-4)" xlink:href="#path-2"></use>
                    <use fill="url(#linearGradient-1)" fill-rule="evenodd" xlink:href="#path-2"></use>
                </g>
                <path d="M35.9978365,15 C24.4012844,15 15,24.3983997 15,35.9983172 C15,47.5982348 24.4017652,57 35.9978365,57 C47.5939078,57 56.9985576,47.5982348 56.9985576,35.9983172 C56.9985576,24.3983997 47.5943885,15 35.9978365,15 Z M52.6729283,26.1590371 C53.0460181,26.8869467 53.0402486,26.9258903 53.0378447,26.9571414 C53.0296713,26.9571414 53.0219788,26.9571414 53.0205364,26.9590645 C52.974381,26.9258903 52.6618703,26.4527971 52.6618703,26.4475085 C52.5835022,26.3273121 52.5373467,26.1979807 52.4642673,26.0782651 C52.325801,25.8566228 52.137333,25.6753666 52.0070401,25.4498781 C51.9709811,25.3965109 51.8647275,25.2080429 51.8397266,25.0690958 C51.8416498,25.061884 51.8416498,25.0527491 51.8416498,25.0489028 C51.9229026,24.9969779 52.3036849,25.5474776 52.3681102,25.656616 C52.6104262,26.0354751 52.6104262,26.0354751 52.6729283,26.1590371 Z M27.1004155,19.4876541 C27.1182046,19.4083245 27.1456094,19.3876507 27.1744565,19.362169 C27.2927298,19.2751468 27.388887,19.2438957 27.3999451,19.2511075 C27.4662935,19.3068787 27.1874378,19.4818847 27.184553,19.4838078 C27.085992,19.5415021 27.0951269,19.5064048 27.1004155,19.4876541 Z M26.6138604,52.9671692 C26.6128988,52.9671692 26.6128988,52.9671692 26.6128988,52.9671692 C26.6100141,52.9671692 26.6100141,52.9671692 26.5037604,52.913802 C24.1983928,51.6522202 23.1046052,49.6771524 22.2685188,47.7333356 C21.514166,45.9986607 20.2160445,44.5798619 19.4972698,42.824994 C19.4741921,42.7730691 19.4592878,42.6975858 19.4482297,42.6403723 C19.2799547,41.9033277 19.7597788,41.2158041 19.6064082,40.4826059 C19.452076,39.7345032 18.6558948,39.3575672 18.5328136,38.601772 C18.5280058,38.5777328 18.0573165,36.7137264 17.4789313,36.7469006 C16.8942958,35.6843642 16.806312,35.5237817 16.9063155,33.1496617 C16.8875648,33.402555 16.8380439,33.6467942 16.7197706,33.8847831 C15.9106082,30.6260174 18.1803977,26.7758852 20.8054878,22.3180398 C20.6742333,22.4531406 20.5386517,22.5877606 20.4035509,22.7190151 C20.3444143,22.8055565 20.3093169,22.8757512 20.3179711,22.9146949 C20.3299907,22.9757547 20.1564271,23.1805694 20.1136371,23.2214362 C20.111714,23.2103781 20.1097909,23.1954737 20.1064254,23.188262 C20.0881555,23.1921082 20.0674817,23.19932 20.0545005,23.2070126 C20.0415193,23.1810502 20.0232494,23.1570109 20.1785432,22.9651774 C20.1876781,22.9521962 20.1977746,22.9396957 20.2078711,22.9267145 C20.2016209,22.9358494 20.1953707,22.9430612 20.1871974,22.9521962 L20.2083519,22.9262337 C20.2083519,22.9262337 20.2083519,22.9267145 20.2078711,22.9267145 C20.2093135,22.9247914 20.2112366,22.923349 20.212679,22.9204643 C20.2189292,22.9132525 20.2275834,22.9021944 20.2319104,22.896425 C20.2338336,22.8945019 20.2376799,22.8925787 20.2376799,22.8892132 C20.3021052,22.8098836 20.3650881,22.7319963 20.4203784,22.6618016 C20.4155706,22.6690134 20.4112435,22.6747828 20.4064357,22.6800714 C20.4126859,22.6709365 20.4165322,22.6690134 20.4218208,22.6618016 C20.6545211,22.3790996 20.820873,22.1867853 21.0704008,21.9281225 C21.3127168,21.6656135 21.5718603,21.3978159 21.8651396,21.117037 C21.8834095,21.096844 21.9011985,21.0800165 21.9011985,21.0800165 C21.9353343,21.042996 21.985336,20.9987637 22.0223565,20.9636663 C22.1276486,20.8641437 22.1444761,20.8511625 22.14688,20.8492393 L22.1478416,20.845393 C22.1555342,20.8401044 22.1608228,20.834335 22.1689962,20.8271232 C22.1992857,20.7977953 22.2310175,20.7679865 22.2622686,20.7405818 L22.3266939,20.6814451 C22.3680415,20.6482709 22.4060236,20.6074041 22.4459288,20.5723067 L22.4747759,20.5444212 L22.6483396,20.3963392 C22.6483396,20.3963392 22.6483396,20.3963392 22.6425701,20.3982623 L22.7175727,20.3372025 C22.7185343,20.3333562 22.7204574,20.3319139 22.7204574,20.3319139 C22.7223806,20.3299907 22.7243037,20.3299907 22.7257461,20.3280676 C22.7267076,20.3266252 22.7295924,20.3266252 22.7295924,20.3247021 C22.7315155,20.3247021 22.7334386,20.3227789 22.7334386,20.3227789 C22.7372849,20.3208558 22.7387273,20.3189327 22.741612,20.3170095 C22.7387273,20.3170095 22.7387273,20.3170095 22.7387273,20.3189327 C22.734881,20.3208558 22.734881,20.3208558 22.7334386,20.3227789 C22.7315155,20.3247021 22.7295924,20.3266252 22.7262269,20.3280676 C22.7262269,20.3299907 22.7243037,20.3299907 22.7243037,20.3299907 C22.7334386,20.3247021 22.748343,20.3150864 22.7594011,20.3078746 L22.9536385,20.1381572 C22.9257529,20.1660428 22.9113294,20.1823895 22.7983447,20.2766235 C22.8041142,20.2766235 22.8132491,20.2674886 22.8166146,20.2636423 L23.0089289,20.0972904 C23.0089289,20.0972904 23.0089289,20.0972904 23.0690271,20.0400769 C23.7195302,19.505924 23.8219376,19.4727498 23.9974244,19.4102476 C23.9180947,19.4823655 23.8512655,19.5415021 23.7978983,19.5895807 C23.7978983,19.5876575 23.8036677,19.5876575 23.8036677,19.5876575 C23.8036677,19.5895807 23.807514,19.5915038 23.8099179,19.5929462 C23.7978983,19.6410248 23.7815516,19.6929496 23.4651945,19.9424774 C23.4358666,19.9737285 23.4070195,20.010749 23.3762492,20.0569044 C23.3690374,20.0992136 23.2877846,20.2251794 22.9478691,20.6814451 C23.0132559,20.650194 23.1022013,20.6074041 23.1714345,20.5814417 C23.2147052,20.6035578 23.2728803,20.6405783 23.3166318,20.6646176 C23.3666335,20.6497132 23.4320203,20.6314434 23.4839452,20.6203853 C23.4680793,20.6386552 23.4570212,20.6588482 23.4430784,20.6775988 C23.5050998,20.6684639 23.5623133,20.6405783 23.6248154,20.6405783 C23.632508,20.6405783 23.6368351,20.6463477 23.6450084,20.6482709 C23.6993372,20.5723067 23.8027061,20.4631684 23.8825166,20.387685 C23.9906934,20.2655654 24.1190632,20.1660428 24.2705107,20.1030599 C24.4551324,19.9794979 24.6575432,19.8573783 24.6936021,19.8996875 C24.7195645,19.9458429 24.682544,19.9809403 24.6695628,20.0218071 L24.6705244,20.0218071 C24.7676431,20.0218071 24.8551461,20.0530581 24.9445723,20.0770974 C25.0277482,19.9847866 25.1239054,19.8886294 25.183042,19.8443971 C25.3037192,19.7554518 25.3926646,19.7131426 25.4546859,19.6948728 C25.4729558,19.6669872 25.4878602,19.6376593 25.5080532,19.61362 C25.4556475,19.633813 25.4195886,19.644871 25.4176654,19.644871 C25.4176654,19.644871 25.3373742,19.7059308 25.3032384,19.7352588 C25.1335211,19.8886294 24.9892853,19.9184381 24.9801504,19.9184381 C24.9960163,19.8482434 25.0724613,19.8314159 25.1065971,19.7780487 C25.1056355,19.7761256 25.1003469,19.7761256 25.1003469,19.7742024 C25.082077,19.7761256 25.0614032,19.7871836 25.0402486,19.7780487 C25.0402486,19.7780487 25.0402486,19.7761256 25.0402486,19.7742024 C25.0402486,19.7742024 25.1835228,19.5415021 25.290738,19.4876541 C25.2926611,19.4876541 25.6186339,19.3987087 25.8220063,19.3583227 C25.970569,19.2789931 26.1330746,19.223222 26.3124077,19.223222 C26.3326007,19.223222 26.3494282,19.2323569 26.3715444,19.2323569 C26.4143343,19.2193757 26.4580858,19.2121639 26.5100106,19.2212988 C26.5157801,19.223222 26.5172224,19.223222 26.5210687,19.2270682 C26.5220303,19.2381263 26.5239534,19.2511075 26.5220303,19.2660119 C26.6133796,19.2847625 26.7018442,19.3049555 26.7826162,19.3438992 C26.8600227,19.2938975 26.942237,19.2515883 26.996085,19.267935 C27.00522,19.2732237 27.0201243,19.2847625 27.00522,19.3179367 C26.9883925,19.351111 26.9681995,19.3770734 26.942237,19.4011127 C26.935506,19.4102476 26.9234864,19.4232288 26.9162746,19.4342869 C27.025413,19.5097703 27.112916,19.6059274 27.1879185,19.7189121 C27.245132,19.667468 27.2941722,19.624678 27.2951338,19.6227549 C27.8307291,19.2107215 27.9095779,19.236684 27.9355404,19.2458189 C27.9504447,19.2511075 27.9586181,19.267935 27.967753,19.2756276 C27.967753,19.2756276 27.967753,19.2756276 27.9715993,19.2756276 C28.0716027,19.3549572 27.7619767,19.6766029 27.5153336,19.8520897 C27.4307153,19.9131495 27.3677324,19.9463237 27.3114805,19.9742093 C27.3153268,19.9891136 27.3162883,20.0035372 27.3196538,20.0165184 C27.3667708,19.9924791 27.4148494,19.9665167 27.4600433,19.9371888 C27.5821628,19.8597823 27.6836086,19.7559326 27.8182286,19.6967959 C27.8821732,19.6689103 27.8701535,19.7761256 27.8985199,19.8150692 C28.0451595,19.8189155 28.156221,19.7189121 28.2893987,19.6689103 C28.3624781,19.633813 28.3797864,19.6266012 28.3797864,19.5838113 C28.3355541,19.5780418 28.1792987,19.6116968 28.1744909,19.6116968 C28.1042962,19.6299667 28.0591023,19.6415055 28.0360246,19.6097737 C28.0360246,19.6097737 28.0288128,19.3323603 28.1600673,19.227549 C28.4326728,19.0078299 28.7634534,18.9780212 28.7985508,18.998695 C28.7918198,19.0429273 28.7918198,19.0890827 28.7918198,19.1352382 C28.8697071,19.0890827 28.9413441,19.0429273 29.0062502,19.0097531 C29.0100965,19.0097531 29.3033758,18.8953261 29.2269309,19.0910059 C29.2269309,19.0982177 29.2331811,19.1039871 29.2370274,19.1092757 C29.3120299,19.0982177 29.3663587,19.0299461 29.4447268,19.0318692 C29.484632,19.0318692 29.4639582,19.0871596 29.4759779,19.113122 C29.5389608,19.1222569 29.6245407,19.0371579 29.6654075,19.1188914 C29.9139737,19.0910059 29.9139737,19.0910059 29.9562828,19.1188914 C29.9562828,19.1188914 30.1226347,19.207356 30.2211958,19.1799512 C30.2231189,19.1761049 30.2288884,19.1761049 30.2351386,19.1741818 C30.2029259,19.2241835 30.1899447,19.2515883 30.2168687,19.2943782 C30.2452351,19.34438 30.2639857,19.3722655 30.1418661,19.4679419 C30.0957107,19.5068855 30.0505168,19.5362135 30.0048422,19.5564065 C29.9163776,19.6006388 29.8053161,19.584292 29.7149284,19.6318898 C29.4985748,19.7391051 29.302895,19.8886294 29.0793296,19.9867097 C29.0370205,20.0088259 29.0370205,20.0088259 28.4514235,20.1030599 C28.2937257,20.1290223 28.1985302,20.2506611 28.0706412,20.3213366 C27.8812116,20.4304749 27.6706274,20.4929771 27.4783131,20.596346 C27.3970603,20.6405783 27.3239809,20.6977918 27.2499399,20.7516398 C27.0763762,21.1006903 26.7263642,21.3444486 26.3114461,21.3444486 C26.2950994,21.3444486 26.2782719,21.3353137 26.2614444,21.3333906 C26.2595213,21.3463718 26.2672138,21.3612761 26.28933,21.3723342 C26.3196195,21.3872386 26.4667399,21.493973 26.4696246,21.6141694 C26.4705862,21.6531131 26.343178,22.039184 26.343178,22.0411072 C26.2268278,22.3016931 26.2268278,22.3016931 26.255675,22.3627528 C26.4393351,22.7449775 26.4220269,22.8430578 26.2917339,23.0757581 C26.208558,23.2180707 26.1604794,23.3065353 26.2249047,23.3526907 C26.3720251,23.4671177 26.3720251,23.4671177 26.3720251,23.491157 C26.3840448,23.5964491 26.4864521,23.6724132 26.4864521,23.7868402 C26.4864521,23.8070332 26.4864521,23.8661699 26.3720251,24.0272331 C26.1585563,24.3358975 25.9186442,24.3301281 25.9147979,24.3301281 C25.7470037,24.308012 25.9941275,24.0753117 25.8667193,23.9700196 C25.757581,23.9830008 25.6912325,24.1584876 25.7032522,24.2378172 C25.721522,24.4171503 25.5219959,25.0527491 25.277276,25.0046705 C25.277276,25.0046705 25.277276,25.0046705 25.2623716,25.0027473 C25.0998661,24.9325526 25.055153,25.1469831 24.9243793,25.1503486 C24.9243793,25.1503486 24.9243793,25.1503486 24.9224561,25.1484254 C24.8633195,25.1075586 24.8152409,25.0763076 24.7729318,24.9969779 C24.644562,24.7642776 24.8152409,24.5056149 24.7089873,24.2729146 C24.6618703,24.1748343 24.516673,24.1748343 24.4113809,24.1527182 C24.4012844,24.1527182 24.3902263,24.1584876 24.3810914,24.1584876 C24.2469522,24.1584876 24.1243518,24.1272365 24.0060785,24.0825234 C24.0003091,24.090216 24.0003091,24.0974278 23.9911741,24.1046396 C23.9118445,24.1969504 23.7147223,24.2931076 23.7147223,24.2931076 C23.6844328,24.308012 23.6464508,24.3301281 23.6344311,24.2858958 C23.4498094,24.204643 23.4498094,24.204643 23.423847,24.164257 C23.3425942,24.0330025 23.4397129,23.8906899 23.5791408,23.7724166 C23.5599093,23.7483773 23.5440434,23.7204918 23.5272159,23.6964525 C22.9416189,24.2671452 22.1574573,24.6570624 21.8891789,25.5143034 C21.9603352,25.5772863 21.9603352,25.5772863 22.0507229,27.2547478 C22.4776606,26.3181771 23.5796216,24.1974312 24.5464817,24.7383152 C24.5522511,24.8897627 24.5522511,24.8897627 24.2916652,25.9686459 C24.5152306,25.9205673 24.6998523,25.7763316 24.9162059,25.7119063 C24.9219753,25.7210412 25.0436141,28.1446822 24.8960129,28.5144064 C23.8522271,28.8413407 23.8522271,28.8413407 23.6700093,28.845187 C23.4584635,28.8523988 23.161338,29.2533741 23.4392321,29.7894502 C23.5267351,29.7375253 23.6608743,29.702428 23.7599162,29.7043511 C23.8551118,30.267832 22.8714242,30.5745733 22.6718981,30.5764964 C22.5997802,30.4971668 22.5002576,30.3918747 22.4242934,30.3178337 C22.0242797,31.0255503 21.0304956,31.199114 20.841066,32.0895292 C20.719908,32.6568563 20.0367114,32.6712799 19.8193963,33.1482194 C19.5809265,33.6655448 19.8544936,34.2472956 19.6145815,34.7703905 C19.5895807,34.827604 19.5424637,34.8997218 19.5131358,34.9550122 C19.4597685,34.9660703 19.3905354,34.9752052 19.3357258,34.9828978 C19.2304337,33.4068821 19.2304337,33.4068821 18.8607095,33.3126481 C18.7837838,33.384766 18.6453175,33.4477489 18.5419486,33.4400563 C18.4395412,33.1684124 18.4227137,33.153508 18.2193413,33.0578317 C17.2274803,34.3583571 17.9275044,35.9656238 17.9404856,35.9766819 C17.975583,35.9896631 18.0265462,36.0060098 18.0640475,36.0209142 C18.2904976,35.5314743 18.2904976,35.5314743 18.4929084,35.4983001 C18.9568667,35.9843745 18.4337718,36.6805522 18.8568632,37.1719152 C19.3313987,37.7281843 19.0063876,38.5777328 19.5756379,39.1008276 C19.7367011,39.0897696 19.7367011,39.0897696 20.2314297,38.7681239 C20.3006628,38.8436073 20.4122051,38.9363989 20.5030736,38.9859198 C20.544902,38.9561111 20.6011539,38.9176483 20.6453862,38.8897627 C21.3069474,39.3570864 21.3069474,39.3570864 21.5910917,39.3292009 C24.3623407,41.8840963 24.1349291,42.4475772 24.0128095,42.7471067 C24.0406951,42.7490298 26.8282908,43.7245441 26.955699,45.1544009 L26.55857,47.9530547 C26.3571208,48.4203784 25.8268141,48.2045056 25.5181497,48.4501872 C25.5753632,48.793949 25.7003675,49.1228064 25.7085408,49.4757031 C25.6671932,49.5146468 25.6123837,49.5588791 25.5700745,49.5939764 C25.533054,49.6718637 25.533054,49.6718637 25.4513204,50.0300491 C25.3460284,50.0209142 25.2085236,49.9968749 25.1046739,49.9781242 C25.472475,50.5026615 25.472475,50.5026615 25.1767918,50.6819946 C25.2359284,51.1012397 25.3724716,52.0786772 26.6383804,52.8214911 C26.7008826,52.8585116 26.7566537,52.9546688 26.7888664,53.0190941 C26.7345376,53.0041897 26.666266,52.9767849 26.6138604,52.9671692 Z M23.7152031,24.7272571 C23.6921254,24.7570658 23.6680861,24.7844706 23.6469316,24.8157217 C23.4502902,24.7916824 23.5950067,24.5700402 23.666163,24.5219616 C23.7152031,24.4849411 23.7454926,24.4959992 23.7656856,24.5056149 C23.7685703,24.5056149 23.7685703,24.5056149 23.7685703,24.5056149 C23.8214568,24.527731 23.827707,24.5685978 23.7152031,24.7272571 Z M27.1523404,52.8493767 C27.1283011,52.8455304 27.0672413,52.8142793 27.0268553,52.7883169 C27.0177204,52.8065868 27.02974,52.819568 27.0268553,52.8306261 C27.0047392,52.8436073 26.9066589,52.7806243 26.8734847,52.7532195 C26.8393489,52.7200453 26.7946358,52.6479275 26.7955974,52.6349463 C26.7984821,52.6258113 26.8225214,52.6349463 26.834541,52.6349463 C26.8393489,52.6349463 27.0893575,52.7104296 27.1182046,52.7460078 C27.1412823,52.7714894 27.2076308,52.8546653 27.1523404,52.8493767 Z M29.1288506,24.6181188 C28.7297984,24.6604279 28.1552595,25.4292043 28.1432398,25.4681479 C28.109104,25.5436313 27.8042859,26.2460593 27.5307188,26.2604828 C27.5009101,26.2604828 27.3864831,26.2513479 27.2460936,26.0239363 C27.2037845,25.9590302 27.1840723,25.9686459 27.1177238,25.9926852 C26.884062,26.0777843 26.8931969,25.5436313 26.8931969,25.539785 C26.9061781,25.2719874 27.0869535,25.0210172 26.9561798,24.7416807 C27.1686871,23.9507881 27.4884096,23.7531852 27.6268759,23.6666438 C27.6509152,23.5392356 27.7191868,23.4651945 27.9057317,23.3522099 C27.8836155,23.1103747 27.8715959,22.977197 28.0441979,22.9142141 C28.0653525,22.8901748 28.0893918,22.8570006 28.1105464,22.8310382 C28.095642,22.7440159 27.9533294,22.7166111 27.9893884,22.600261 C28.0437172,22.4247742 28.2379546,22.337752 28.2860332,22.1531303 C28.2860332,22.149284 28.3168035,22.0310107 28.4783475,21.6300354 C28.495175,21.4377211 28.4192108,21.3175246 28.4192108,21.3175246 C28.243724,21.3064666 28.0701604,21.3362753 27.8970775,21.3285827 C27.8970775,21.3285827 27.8941928,21.3285827 27.8879426,21.3285827 C27.658127,21.2564649 27.74563,21.1458841 27.8259212,21.0348226 C27.9422714,20.8776057 27.9643875,20.7723136 27.9975617,20.6266355 C28.0076582,20.5915382 28.0196779,20.5415365 28.0845839,20.4804767 C28.1288162,20.4343212 28.232666,20.3328754 28.6778736,20.3400872 C28.8995158,20.3420104 28.8995158,20.3420104 29.2586627,19.9982486 C29.3596277,19.8617054 29.6437721,19.721316 29.726948,19.6804492 C29.8375288,19.6304475 29.9596483,19.6602562 30.0707098,19.6141008 C30.3183145,19.6641025 30.3183145,19.6641025 30.5620729,19.6323706 C30.5692847,19.6415055 30.5789004,19.6506405 30.5861122,19.6602562 C30.5731309,19.7044885 30.5731309,19.7083348 30.4957244,19.8266081 C30.5019747,19.8395893 30.5087057,19.8506473 30.5120712,19.8617054 C30.5231292,19.8617054 30.5389952,19.8617054 30.5510148,19.8655517 C30.5510148,19.8746866 30.5510148,19.8934373 30.5563034,19.9064185 C30.9034307,19.6770837 30.9034307,19.6770837 30.9553556,19.68093 C30.9967032,19.7621828 30.9553556,19.8472818 30.9683368,19.9285346 C30.974587,19.9285346 30.9914145,19.923246 31.0024726,19.923246 C31.2419039,19.4689035 31.4096981,19.5924654 31.4375837,19.6684295 C31.5246059,19.5650606 31.57605,19.5097703 31.6390329,19.4689035 C31.6611491,19.4871733 31.6611491,19.4871733 31.6798997,19.6482365 C31.9356777,19.4064013 32.3025173,19.3862083 32.3707888,19.3842852 C32.864075,19.4525567 32.7708026,19.6357361 32.6986847,19.768433 C32.7068581,19.7756448 32.715993,19.7867028 32.7246471,19.7924723 C33.0285037,19.611216 33.0212919,19.7775679 33.0111954,19.9549778 C32.8938837,20.1343109 32.6655105,20.1713314 32.5337752,20.3280676 C32.5419486,20.3410488 32.5520451,20.35403 32.5558913,20.3593187 C32.7866685,20.2963357 32.7866685,20.2963357 32.8645558,20.2319104 C33.2717813,20.0525774 33.4280367,20.1155603 33.5924654,20.1746969 C33.6285243,20.2780659 33.6035235,20.3650881 33.5741955,20.4184553 C33.4246712,20.6790412 33.0679282,20.6477901 32.9097496,20.894914 C32.7515711,21.1497304 32.783303,21.4694529 32.6111817,21.7189807 C32.5106975,21.8593702 32.379443,21.9757203 32.2972286,22.129091 C31.9962567,22.6872832 31.9962567,22.6872832 31.9029843,22.7329579 C31.7226897,22.8084412 31.64336,22.4800646 31.4717195,22.6036265 C31.300079,22.7329579 31.5029706,22.9084447 31.4505649,23.0546035 C31.4294104,23.0656616 31.3996016,23.0747965 31.3755623,23.0824891 C31.3755623,23.0824891 31.3755623,23.0824891 31.3717161,23.0824891 C31.0140115,23.0012363 31.0140115,23.0012363 30.8856417,23.04018 C30.909681,23.239706 30.909681,23.2728803 31.0279543,23.2858615 C31.2885401,23.3151894 31.2885401,23.3151894 31.3385418,23.3781723 C31.4106597,23.4762526 31.2433463,23.8474192 31.1500738,23.9027096 C31.0870909,23.9339606 30.7894845,24.0671383 30.7140012,24.0945431 C30.4183179,24.197912 30.0822487,24.1113706 29.8053161,24.2959923 C29.2879907,24.6460043 29.2879907,24.6460043 29.1288506,24.6181188 Z M53.4176654,41.119647 C53.4239157,41.1158007 53.4306467,41.1028195 53.4397816,41.0975308 C53.4489165,41.0956077 53.4527628,41.0975308 53.4628593,41.0975308 C53.4450702,41.1033003 53.4287235,41.110512 53.4176654,41.119647 Z M53.5469968,34.5501906 C53.5450737,34.5554792 53.3705484,34.8530856 53.3142965,35.0434768 C53.2580446,35.2228098 53.0166901,35.1655963 52.9464954,35.3223325 C52.90034,35.4257014 52.8671658,35.7213847 52.9556303,35.9430269 C53.3138157,37.1695113 53.3138157,37.1695113 53.2955459,37.6075071 C53.2916996,37.7700127 53.0517875,38.5719633 52.8705313,38.6806209 C52.7613929,38.628696 52.7820667,38.5109035 52.7373536,38.4277276 C52.604176,38.4113809 52.604176,38.4113809 52.4657097,38.0474261 C52.4484014,38.0402143 52.4296507,38.0291562 52.4137848,38.0233868 C52.3344552,38.1469487 52.2233937,38.422439 52.3974381,38.9046671 C52.4027267,38.9176483 52.7503348,39.9321062 52.7152375,40.2128851 C52.7152375,40.2128851 52.6801401,40.4826059 52.6392733,40.5306844 C52.6190803,40.5566469 52.5767712,40.598956 52.5618668,40.5859748 C52.5618668,40.5859748 52.4253237,40.4826059 52.38638,40.3936605 C52.355129,40.3196195 52.3575329,40.2330781 52.3272434,40.1571139 C52.2969539,40.0590336 52.2459906,39.9686459 52.2137779,39.8724888 C52.1926234,39.811429 52.1738727,39.7522923 52.157526,39.6931557 C52.1224287,39.5657475 52.0070401,39.162849 51.9950204,39.0652495 C51.908479,37.396923 51.908479,37.396923 51.8454961,37.0829699 C51.5868333,37.3748068 51.5868333,37.3748068 51.5276967,37.302689 C51.495484,37.2603798 51.4546173,37.1935506 51.4512518,37.0459494 C51.4430784,36.8392115 51.4368282,36.6377623 51.3286514,36.4122738 C51.2435523,36.2310175 51.0570075,36.1463993 50.9488307,35.9891823 C50.936811,35.9891823 50.916618,35.9872592 50.9007521,35.9872592 C50.8036334,36.1185137 50.6098767,36.07957 50.5137196,36.2199595 C50.3074625,36.5267008 50.2420756,36.9036368 50.0738006,37.2305711 C49.9295649,37.5926028 49.6223428,37.8700161 49.5160892,38.2560871 C49.4771455,38.3815722 49.3915656,39.4349737 49.3915656,39.4441087 C49.3805076,39.6157492 49.3723342,39.7340225 49.33916,39.896528 C49.33916,39.8984512 49.33916,39.9042206 49.33916,39.9095093 C49.3290635,39.9446066 49.3208901,39.9763385 49.3112744,40.0114358 C49.2949277,40.0667262 49.2151173,40.1537484 49.170885,40.1460558 C49.0987671,40.1402864 49.0785741,40.0907655 49.0266493,39.9744153 C48.8473162,39.5787287 48.6074041,39.2133315 48.4799959,38.7955287 C48.3910505,38.4979223 48.2251794,37.8623236 48.1011367,36.9204643 C47.6391016,36.9497922 47.5987156,36.9219067 47.6150623,36.5267008 C47.4174594,36.5728562 47.4174594,36.5728562 47.2919743,36.4565061 C47.1366805,36.3141935 47.1217762,36.0925513 46.9871562,35.9391806 C46.7938803,36.1127443 46.7635908,36.1387067 46.6635873,36.1757272 C46.5664686,36.2108245 46.4909853,36.1204368 46.3957897,36.142553 C46.2938631,36.162746 46.2414575,36.2665957 46.137127,36.2867887 C46.1068375,36.2944813 46.0611628,36.290635 46.0318349,36.2867887 C46.0299117,36.2867887 45.7419211,36.2406333 45.5645111,36.1906315 C45.3447921,36.1295718 45.2688279,35.8084069 44.9789141,35.8766785 C44.7385212,35.933892 44.7385212,35.933892 44.4553384,35.8415811 C44.3048525,35.7954257 44.1774443,35.7103266 44.1312888,35.6843642 C43.9707064,35.5641677 43.8865689,35.4757031 43.7755074,35.2982932 C43.7634878,35.2761771 43.736083,35.2300216 43.702428,35.2098286 C43.6120402,35.150692 43.5562691,35.2280985 43.5230949,35.2891583 C43.4860744,35.4406058 43.6375219,35.756482 43.8298362,35.8636972 C43.9038772,35.9209107 43.9130121,35.9300457 44.1885024,36.3218861 C44.3260071,36.5142004 44.3788935,36.59353 44.5332257,36.5617981 C44.7519832,36.5079501 44.7308287,36.227652 44.9241045,36.1555342 C44.9793949,36.1444761 45.0866101,36.1204368 45.4375837,36.4512174 C45.5577801,36.5637213 45.6202823,36.7247845 45.7351901,36.8430578 C45.7904804,36.8983482 45.8775027,36.9021944 45.9265428,36.9632542 C45.9496205,36.9945053 45.9827947,37.0406607 45.9678904,37.1348947 C45.9496205,37.2478794 45.8664446,37.37673 45.7424019,37.5748137 C45.6645146,37.693087 45.6924002,37.8387651 45.6332635,37.9536729 L45.2741166,38.4729215 C45.2721934,38.4786909 44.8683334,38.9363989 44.3615852,39.3022769 C44.3495656,39.3133349 44.3312957,39.324393 44.3154298,39.3373742 C44.2774477,39.3575672 44.227446,39.3892991 44.1942718,39.4133384 C43.7880078,39.6921941 43.1798139,40.1114393 43.0192314,40.0931694 C43.0173083,40.0912463 42.811532,39.8455648 42.6129675,39.1138089 C42.5538308,38.8960129 42.4706549,38.7628353 42.4394038,38.7056218 C42.4206532,38.6743707 42.3543047,38.5724441 42.2307428,38.4416704 C41.8485181,38.0238676 41.6691851,37.4921185 41.3706171,37.0228717 C41.2513823,36.8344037 41.2432089,36.7440159 41.2403242,36.7122841 C41.20715,36.2911158 40.8821388,36.1305333 40.8340602,36.1319757 C40.6427075,36.1449569 40.6984787,36.3372712 40.7028057,36.3555411 C40.8744462,36.8983482 41.218208,37.3589409 41.3884062,37.8964594 C41.4667743,38.1402177 41.6211065,38.3565713 41.6369724,38.6224458 C41.6619733,38.8902435 41.9480408,39.0104399 41.9898692,39.2710258 C41.9927539,39.3061231 41.9970809,39.358048 42.0129469,39.3912222 C42.1139119,39.6147876 42.4047873,39.609499 42.5211374,39.809025 C42.6264295,39.9898005 42.6115251,40.2138466 42.7557608,40.3777946 C42.8206669,40.4537587 43.3581854,40.5128954 43.9067619,40.1912497 C44.1394622,40.0561489 44.2596586,40.0436485 44.3779319,40.1431711 C44.38899,40.1599986 44.4332223,40.2133658 44.4288952,40.3128885 C44.422645,40.3922181 44.3990865,40.4532779 44.3779319,40.4941447 C44.3236031,40.612418 44.2635049,40.7287682 44.2062914,40.841272 C44.106288,40.8523301 44.0106116,40.8653113 43.9086851,40.8763694 L43.9086851,40.8782925 C44.0048422,40.8691576 44.1009993,40.863869 44.1784059,40.8874275 C43.8904152,41.4379271 43.803393,42.0735259 43.4476115,42.5908513 C43.3375116,42.7533569 43.2663553,42.8624953 43.1586593,42.9216319 C42.8177822,43.1177925 42.0494866,44.0062846 42.0446787,44.0134963 L41.7528418,44.7765033 C41.557162,45.3789278 42.2951681,45.77798 42.1004499,46.3780006 C41.8879426,47.0246574 41.8879426,47.0246574 41.5658161,47.3294756 C41.3138844,47.5564065 40.9994505,47.7006422 40.7446341,47.9222844 C40.7114599,47.9573818 40.7177101,48.0386346 40.7244411,48.0867131 C40.7263642,48.0939249 40.7205948,49.1617501 39.0589993,50.667571 C38.8806278,50.8262303 37.5772176,50.9483499 37.5700058,50.9483499 C37.2772073,50.9425804 37.1719152,50.7526701 37.1719152,50.7469006 L36.7627666,49.2930046 C36.7800749,48.9583777 36.1954394,48.0088259 36.1853429,48.0016141 C35.433394,47.247742 36.707957,46.5328136 36.4146777,45.7476905 C36.1891892,45.1289193 35.581476,44.7260208 35.4906075,44.0351317 C35.4675298,43.8557986 35.5848415,43.756276 35.6377279,43.7154092 C35.7348467,43.6322332 35.6718637,42.7990316 35.6665751,42.7918198 C35.6574402,42.7624918 35.6194581,42.6918163 35.5281088,42.6475841 C35.3175246,42.5370033 35.0920361,42.7490298 34.881452,42.6067173 C34.719908,42.5014252 34.6982726,42.25959 34.4958618,42.1893952 C34.3194134,42.1264123 34.1756585,42.1951647 34.0828669,42.2427625 L33.2737045,42.5696968 C33.0761015,42.6120059 32.9208077,42.4495003 32.7313781,42.459116 C32.5707957,42.4740204 32.4707923,42.6254679 32.3102098,42.636526 C32.2871321,42.636526 32.2539579,42.6437378 32.2279955,42.636526 C31.7688451,42.5403688 30.9457399,41.5869707 30.940932,41.5797589 C30.8947766,41.5278341 30.8947766,41.5278341 30.7716955,41.1585906 C30.6683265,40.9129091 30.6683265,40.9129091 30.2711975,40.6470346 C30.0808063,40.5138569 30.0808063,39.9691267 30.0889797,39.7397919 C30.1009993,39.4421855 30.2904289,39.1892922 30.3202376,38.8955321 C30.3433154,38.6368694 30.288025,38.3762835 30.3231224,38.1142553 C30.3534119,37.8873244 30.2711975,37.6450084 30.402452,37.4252893 C30.9601635,36.4848724 31.0058381,36.4574676 31.2524812,36.3204437 C31.8270202,36.0026443 31.7077853,35.3208901 32.0154882,34.8646245 L32.5558913,34.2049864 C32.8467667,33.9371888 33.1015832,34.3694152 33.3900546,34.2790274 C33.7006422,34.1737354 33.9554586,33.9463237 34.2804698,33.8742058 C34.8179883,33.9261307 35.3454102,33.6910265 35.8838902,33.8131461 C36.0300491,33.8443971 35.9762011,33.9833442 35.9098527,34.1847934 C35.8007143,34.4896116 35.8247536,34.5799993 35.954085,34.7059652 C36.018991,34.767025 37.2281672,35.4526254 37.2363405,35.4559909 C37.5103884,35.5425324 37.6656822,35.4482984 37.6945293,35.1713658 C37.7517428,34.6131735 38.2070469,34.8646245 38.7311034,35.1545383 C38.8662042,35.2338679 38.9724578,35.2338679 39.0878464,35.2338679 C39.2763144,35.2338679 39.4460318,35.3223325 39.6253649,35.3670456 C39.8546997,35.4189704 39.8306604,35.0752086 40.0383598,35.0790549 C40.2075964,35.0881898 40.3109653,35.2252138 40.4604897,35.2732924 C40.6580927,34.841066 41.0239706,34.0501734 40.6917477,33.6660256 C39.9917236,33.6251588 39.9359525,33.6842955 39.8085442,33.8174731 C39.7796971,33.8487242 39.7061369,33.9025722 39.6349806,33.9136303 C38.9580343,34.0338267 39.2340053,32.9751365 38.6873519,32.7958034 C38.4758062,32.9953295 38.7036986,33.3333219 38.4676328,33.5256362 C38.3363783,33.627082 38.1647378,33.6366977 38.0858889,33.5756379 C38.0286754,33.5314056 38.0286754,33.5314056 38.0786772,33.2265875 C38.1229094,32.9660016 37.7728974,33.0049452 37.6695285,32.8477283 C37.5733713,32.7054157 37.6051032,32.520794 37.5070229,32.372712 C37.4906762,32.3486727 37.4719255,32.3116522 37.4450015,32.289536 C36.681033,31.5414334 36.681033,31.5414334 36.4762183,31.6577836 C36.4358323,32.3563653 37.4858683,32.1789553 37.4555788,32.8679213 C37.4517325,32.8751331 37.2873038,33.6400632 36.9680621,33.4554415 C36.7093994,33.3059171 36.9339263,32.9934064 36.7488238,32.8179196 C36.4247742,32.5111783 35.9858168,32.3486727 35.6987877,31.9996222 C35.6507092,31.9385625 35.6314777,31.8645214 35.5963804,31.798173 C35.0040523,32.1529929 35.0040523,32.1529929 34.8766441,32.1049143 C34.7030805,32.0385659 34.7030805,32.0385659 34.3804732,32.3856932 C33.9400735,32.8621519 33.9953639,33.775164 33.0982177,33.8617054 C33.0982177,33.8617054 33.0982177,33.8617054 33.0914867,33.8617054 C32.5890656,33.9780556 32.5890656,33.9780556 32.2510732,33.647275 C32.1005872,33.5068855 32.2933823,31.9438511 32.3010749,31.9308699 C32.3731928,31.838559 32.3731928,31.838559 33.573234,31.9380817 C33.7068924,31.3928706 33.7506439,31.2322882 33.2804355,30.7462138 C33.1862014,30.6500567 33.1381229,30.4231258 33.1823552,30.3582197 C33.2155294,30.3101411 33.2357224,30.3101411 33.5631375,30.3250455 C33.5780418,30.267832 33.600158,30.1812906 33.6482365,30.1495587 C33.7708369,30.0553247 33.9290154,30.1404238 34.0525774,30.059171 C34.2011401,29.964937 34.2299873,29.7745458 34.3756654,29.6803118 C34.3968199,29.6731 34.4275902,29.6601188 34.4468217,29.6505031 C34.5420172,29.6505031 34.6343281,29.659638 34.726639,29.6634843 C34.7357739,29.6615612 34.7357739,29.659638 34.7415433,29.6557918 C34.6453862,29.6557918 34.5569216,29.6500223 34.4737457,29.6428105 C34.5160548,29.6389643 34.5160548,29.6389643 34.7083691,29.2937601 C34.7102922,29.2918369 34.8987603,28.9557677 35.2497339,28.9278821 C35.251657,28.9278821 35.251657,28.9278821 35.2598304,28.9278821 L35.2607919,28.9278821 C35.4213744,28.8980734 35.4502215,28.7192211 35.3934888,28.5562348 C35.2829081,28.2533397 35.4463752,27.8504413 35.6362856,27.8283251 C36.1084172,27.7653422 35.9420653,28.3937292 35.9420653,28.400941 C35.8689859,28.6225832 35.8266767,28.757684 36.4815069,28.7648958 C36.4815069,28.7648958 36.4853532,28.7648958 36.4867956,28.7648958 C36.4867956,28.7648958 36.4867956,28.7648958 36.5026615,28.7629726 C36.748343,28.7538377 36.9267145,28.546619 37.172396,28.5360418 C37.172396,28.5360418 37.172396,28.5360418 37.1752807,28.5360418 C37.2094165,28.5321955 37.282496,28.5249837 37.3349016,28.4509427 C37.343075,28.4398846 37.3536523,28.4249803 37.3570178,28.4177685 C37.4623098,28.2533397 37.495484,28.0595831 37.5656788,27.8840963 C37.6406813,27.7009169 37.8724201,27.6735121 37.9517497,27.4922559 C37.8757856,27.3720595 37.8584773,27.2927298 37.9185755,27.0782994 C37.4714448,26.8398297 37.4445208,26.8234829 37.4041348,26.7383839 C37.4041348,26.7345376 37.3060545,26.1917305 37.3940383,25.883066 C37.161338,25.903259 37.161338,25.903259 37.1781655,27.2095539 C37.1820117,27.5215838 36.7969024,28.2716096 36.5026615,28.317765 C36.4613139,28.3269 36.3762148,28.3398812 36.2872695,28.2918026 C35.967547,28.1273739 36.0545692,27.7504379 35.873313,27.5177376 C35.7622515,27.3624438 35.7050379,27.4033106 35.5535904,27.5364882 C35.4213744,27.6547615 35.2588688,27.765823 35.0242453,27.5658161 C34.8328926,27.4013874 35.0083794,26.3705828 35.0141488,26.3628902 C35.0213606,26.3388509 35.0213606,26.3388509 35.527628,25.8234486 C35.6608057,25.690271 35.6608057,25.690271 35.9415845,25.1936193 C36.1502455,24.8243758 36.781998,23.7046258 37.2228785,23.6733748 C37.3344208,23.6416429 37.3651911,23.5031766 37.4728871,23.4666369 C37.639239,23.4113465 37.8128026,23.4425976 37.9781929,23.4224046 C38.2157011,23.4055771 38.3272434,23.4964456 38.4484014,23.6127958 C38.4522477,23.6166421 38.7493733,23.8065524 39.1412136,23.7733782 C39.1465023,23.7733782 39.6806552,23.8733816 39.939318,24.5493664 C40.0157629,24.7508156 40.3696212,24.5935987 40.3715444,24.5935987 C40.5773206,24.4844603 40.0946118,24.2815687 40.2585597,24.1190632 C40.2585597,24.11714 40.4782788,23.9969436 40.6095333,24.1339675 C40.7316529,24.2594526 40.794155,24.2099317 40.8052131,24.2003159 C40.9234864,24.0820427 40.9234864,24.0820427 40.944641,24.0320409 C40.5826093,23.874824 40.6576119,23.6440468 40.6576119,23.6421237 C40.7037673,23.5459666 40.9052165,23.6017377 40.955699,23.6421237 C40.971565,23.6551049 40.971565,23.6551049 41.1210893,23.9897318 C41.2052268,23.9916549 41.2302277,23.9695388 41.285518,23.8844397 C41.3297503,23.9916549 41.3739826,24.1022357 41.4182149,24.2094509 C41.3739826,24.1022357 41.3297503,23.9916549 41.294653,23.8714585 C41.3739826,23.7551083 41.4480236,23.7623201 41.5754318,23.8825166 L41.6066829,23.8767471 C41.590817,23.8065524 41.5653353,23.7421271 41.5653353,23.666163 C41.5653353,23.5498128 41.5956248,23.4387513 41.6307222,23.3353824 C41.5013908,23.3647103 41.4033106,23.3041313 40.901851,22.9863319 C40.7547306,22.882963 40.6763625,22.7185343 40.7196332,22.6036265 L40.7234795,22.5964147 C40.7696349,22.5151619 40.7696349,22.5151619 40.8595419,22.4449672 C40.7782891,22.3305402 40.7532882,22.2617878 40.7595384,22.1531303 C40.7787699,21.7761942 40.7787699,21.7761942 41.0585872,21.5103197 C41.3566743,21.2223291 41.3566743,21.2223291 41.489852,21.0391497 C41.5648546,20.9429925 41.8114976,21.1497304 41.8725574,21.2997356 C41.9465984,21.2833889 42.0177547,21.2555033 42.0980459,21.2555033 C42.6533535,21.2555033 43.0975995,21.6877297 43.1399087,22.234383 C43.1879872,22.2324599 43.2581819,22.2805385 43.5355953,22.5079501 C43.540884,22.4209279 43.4303032,22.3012123 43.5375185,22.2512105 C43.688966,22.1790927 43.803393,22.2954428 43.9346475,22.3137127 C43.5966551,22.0127408 43.4543425,21.8925444 43.5081905,21.7502318 C43.6024245,21.7112882 43.7288712,21.7872523 43.8038738,21.6709022 C43.8221436,21.6747484 43.8221436,21.6747484 43.9663793,21.7189807 C43.9702256,21.7151344 43.9774374,21.7021532 43.98513,21.6968646 C43.9812837,21.6636904 43.9812837,21.6636904 43.8952231,21.6007074 C43.5976167,21.3790652 43.574539,21.2088671 43.6524263,21.1627116 C43.6524263,21.1627116 43.6524263,21.1627116 43.6543494,21.1627116 C43.6543494,21.1627116 43.6543494,21.1627116 43.6543494,21.1588653 C43.6745424,21.1497304 43.6745424,21.1497304 43.7755074,20.8598166 C43.8163742,20.7396202 43.9591676,20.8598166 44.0240736,20.7708713 C44.0952299,20.6766372 44.133212,20.5602871 44.1885024,20.454995 C44.1154229,20.3756654 44.0433051,20.2963357 43.9678217,20.2184484 C43.9668601,20.2184484 43.9596483,20.2222947 43.9519558,20.2242179 C43.9519558,20.226141 43.9452248,20.226141 43.9408977,20.226141 C43.9351283,20.2319104 43.9317628,20.2319104 43.9226278,20.2352759 C43.9226278,20.2371991 43.9154161,20.2391222 43.9096466,20.2410454 C43.9048388,20.2410454 43.9014733,20.246334 43.8957038,20.2482572 C43.888492,20.2501803 43.8836842,20.2535458 43.8783955,20.2554689 C43.8735877,20.2554689 43.8702222,20.2593152 43.8634912,20.2612384 C43.8562794,20.2631615 43.85051,20.266527 43.8226244,20.2761427 C43.6831965,20.2578729 43.6101171,20.111714 43.4697277,20.0876747 C43.4798242,20.1650812 43.4798242,20.1650812 42.9024005,20.0415193 C42.9004774,20.0617123 42.8913424,20.0876747 42.8745149,20.0953673 C42.8673031,20.0992136 42.3908445,19.9179573 42.4937326,19.7626636 C42.1557402,19.5222707 42.0966036,19.4761153 42.1095848,19.3948625 C42.1095848,19.3948625 42.1095848,19.3948625 42.111508,19.3948625 C42.1143927,19.3948625 42.1143927,19.3948625 42.1143927,19.3948625 L42.1143927,19.3939009 C42.1143927,19.3939009 42.1143927,19.3939009 42.1422782,19.3900546 C42.3466122,19.3842852 42.3509392,19.3862083 42.4168069,19.4083245 C42.7365294,19.5285209 43.0192314,19.7184313 43.3312614,19.842474 C43.3264535,19.8035303 43.3144339,19.7742024 43.3144339,19.7352588 C43.3226072,19.7275662 43.3312614,19.7203544 43.3384732,19.7092963 C43.3423194,19.7092963 43.6923315,19.7645867 43.8836842,19.9145918 C44.0952299,20.0843092 44.267832,20.1843126 44.3178337,20.2136406 C44.4231258,20.2761427 44.4731275,20.1285415 44.5712078,20.1376764 C44.6250558,20.1468114 44.6250558,20.1468114 44.9092002,20.3112401 C45.1419005,20.4458601 45.2659432,20.7141385 45.5106631,20.8396236 C45.5207596,20.8487585 45.5385487,20.8564511 45.5524915,20.8617398 C45.6577836,20.9026065 45.751056,20.8266424 45.8553865,20.8247193 C45.9765445,20.8155843 46.0751056,20.9002026 46.195302,20.8987603 C46.2303994,20.8987603 46.2414575,20.8915485 46.2746317,20.8492393 C46.3688657,20.9247227 46.4611766,21.00261 46.5554106,21.0819396 C46.4611766,21.00261 46.3688657,20.9247227 46.2909784,20.8271232 C46.3058828,20.8122188 46.318864,20.7862564 46.3308836,20.7679865 C46.1712627,20.6203853 46.130396,20.5593255 46.1467427,20.4924963 C46.2078025,20.4742265 46.2731893,20.4924963 46.3270373,20.4554758 C46.3270373,20.4554758 46.3270373,20.4554758 46.350115,20.4516295 C46.5198324,20.4809575 46.6438751,20.582884 46.7712834,20.6843298 C46.9135959,20.706446 47.0270614,20.7896219 47.1342766,20.8915485 C47.1573543,20.8987603 47.1775473,20.9026065 47.1996634,20.9098183 C47.1703355,20.8689515 47.1443731,20.8266424 47.1193722,20.7857756 C47.1275456,20.7727944 47.1323534,20.7617363 47.1386037,20.7487551 C47.2107215,20.7396202 47.27707,20.6915416 47.3549572,20.7006765 C47.351111,20.6953879 47.0318692,20.3016244 46.9328274,20.2905663 C46.8135925,20.2756619 46.5991621,20.1150795 46.5515643,19.9785364 C46.5938734,19.9415158 46.7102236,20.0078643 46.9866754,20.2242179 C47.0164841,20.1929668 47.0164841,20.1929668 47.0578317,20.1429651 C47.1092757,20.1593118 47.1169683,20.1593118 47.3126481,20.2684502 C47.216491,20.1833511 47.2112023,20.1742161 47.1895669,20.1280607 C47.2068752,20.111714 47.2068752,20.111714 47.6929496,20.2684502 C47.7102579,20.2554689 47.7352588,20.2386414 47.7540094,20.226141 C47.7520863,20.1746969 47.6958343,20.1468114 47.6799684,20.0948865 C47.8165116,20.1189258 47.9237268,20.2184484 48.0698856,20.2073904 C48.0256534,20.1482537 48.0256534,20.1482537 48.0126721,20.1189258 C48.0256534,20.1020983 48.0429616,20.0838284 48.0588276,20.0727704 C48.0256534,20.0319036 47.9867097,19.9987294 47.9602665,19.9544971 C48.0472887,19.9823826 48.1035406,20.0727704 48.1977746,20.0766166 C48.1035406,19.9492084 47.9482468,19.8809368 47.8429548,19.7568941 C47.8482434,19.7400666 47.8511281,19.7126618 47.8511281,19.6958343 C47.8650709,19.6958343 47.8790137,19.6977575 47.8881486,19.7016038 C47.8934373,19.6924688 47.903053,19.6828531 47.9093032,19.6737182 C48.0987328,19.7641059 48.0987328,19.7641059 48.3232597,19.9174766 C48.2771043,19.8766098 48.2160445,19.8395893 48.1679659,19.7919915 C48.2160445,19.8213194 48.2160445,19.8213194 48.3593187,19.9323809 C48.3785501,19.9492084 48.3963392,19.963632 48.4155706,19.9804595 L48.4247055,19.9857481 C48.4285518,19.9915176 48.4338404,19.9915176 48.4376867,19.9968062 C48.5150932,20.0612315 48.5958652,20.1280607 48.6742333,20.192486 L48.6982726,20.2165253 C48.73337,20.2458532 48.7723136,20.2756619 48.7963529,20.2958549 C48.8026031,20.306913 48.8093341,20.3107593 48.818469,20.3179711 C48.8699131,20.3622034 48.9237611,20.4045125 48.9771283,20.4511487 L49.0069371,20.4804767 C48.953089,20.4362444 48.8968371,20.3862427 48.8415468,20.3381641 C48.8415468,20.3400872 48.8425083,20.3400872 48.8425083,20.3400872 L48.8405852,20.3400872 C48.9247227,20.4102819 49.0117449,20.4804767 49.0925169,20.558364 C49.0213606,20.5102854 48.9569353,20.4583605 48.8886638,20.4107627 C49.1324221,20.6271163 49.3468526,20.8227961 49.561283,21.0353034 L49.5641677,21.0353034 L49.5670524,21.0372266 C50.0694735,21.534359 50.5690099,22.1271678 51.4397129,23.3464405 C51.9964628,24.0815619 52.3503211,24.7671623 52.3503211,24.7964903 C52.2411827,24.7224493 52.2411827,24.7224493 50.6978605,22.5685291 C50.6444933,22.4944881 50.5502593,22.3632336 50.4651602,22.2579416 C50.4300628,22.2189979 50.3988118,22.1786119 50.3699646,22.1488032 C50.3387136,22.1175521 50.310828,22.095436 50.2925581,22.0838971 C50.5502593,22.4199663 50.5502593,22.4199663 50.5541056,22.4550637 C50.4940073,22.4069851 50.4396786,22.3536179 50.3786188,22.2997699 C50.9824857,23.2993235 50.9824857,23.2993235 50.9695044,23.3267283 C50.9161372,23.3377863 50.8642124,23.3248051 50.8199801,23.3454789 C50.7690168,23.4748103 50.7690168,23.4748103 50.6978605,23.5079845 C50.6978605,23.5228888 50.6959374,23.5411587 50.6978605,23.5522168 C50.7440159,23.8128026 50.9646966,23.9695388 51.0690271,24.1969504 C51.1151825,24.2964731 51.1464336,24.4056115 51.1796078,24.5128267 C51.3440365,24.7344689 51.5103884,24.9527456 51.6801058,25.1724647 C51.6820289,25.1705416 51.6877983,25.1705416 51.6940486,25.1594835 C51.8003022,25.1594835 51.9498266,25.384972 52.2844534,25.8931625 C52.2676259,25.919125 52.2512792,25.939318 52.2373364,25.9672035 C52.2512792,25.939318 52.2676259,25.919125 52.2935884,25.9080669 C52.4008036,26.0744188 52.4387857,26.1316323 52.4690752,26.1907689 C52.8921666,26.9239672 53.1916961,28.2264157 53.1340019,28.3778633 C53.1041931,28.3817095 53.0950582,28.3836327 53.0320753,28.3297847 C53.0267866,28.4889248 53.2888149,29.4235722 53.2888149,29.4327072 C53.364779,29.64858 53.5335348,29.8207013 53.6268072,30.0312854 C53.8465263,30.5337065 53.755177,30.7370789 53.6820976,30.7091933 C53.5628627,30.6558261 53.1517909,29.8447405 53.1465023,29.8336825 C53.0965006,29.713486 53.0714997,29.6543494 53.0041897,29.6264638 C52.954188,29.6673306 52.9633229,29.742814 52.9118788,29.7817576 C52.8695697,29.7596415 52.8493767,29.7505065 52.756585,29.5639617 C52.7493733,29.6048285 52.736392,29.6413682 52.7286995,29.6783887 C52.7517772,29.8466637 52.5623476,29.9481095 52.5955218,30.1178268 C52.6012913,30.1731172 52.7599505,30.3707201 52.8613963,30.4337031 C52.9013016,30.3894708 52.9354373,30.3452385 52.9686116,30.2986023 C52.9787081,30.2875442 52.9916893,30.2673512 53.0056321,30.2582163 C53.0710189,30.2120609 53.109001,30.2875442 53.1239054,30.3524503 C53.1647721,30.496686 53.1330403,30.6423641 53.1421752,30.7827535 C53.1162128,30.7087125 53.0859233,30.6293829 53.0609224,30.5534187 C53.0859233,30.6327484 53.1166936,30.7216937 53.1440984,30.8159277 C53.1590027,31.0337237 53.1590027,31.0337237 53.2806415,31.2000756 C53.3157389,31.2592122 53.5484392,31.8299049 53.5546894,31.8356743 C53.582575,31.9097153 53.575844,31.9962567 53.5965177,32.0702977 C53.620557,32.1606855 53.6777705,32.2366496 53.703733,32.323191 C53.7186373,32.3640578 53.7296954,32.4212713 53.7369072,32.4635805 C53.7537347,32.5395446 53.7590233,32.594835 53.7869089,33.0732168 C53.7989285,33.3299564 53.7657543,34.4179745 53.5931522,34.5030736 C53.5744016,34.5170164 53.5604588,34.5372094 53.5469968,34.5501906 Z M53.3277585,35.7122497 C53.3277585,35.7531165 53.3277585,35.7531165 53.2027542,36.0944744 C53.1565988,36.0925513 53.0916927,36.0853395 53.0835194,35.8968715 C53.0782307,35.6915759 53.149387,35.5790721 53.1849651,35.5497442 C53.1926577,35.547821 53.1960232,35.5439747 53.2008311,35.5420516 C53.3142965,35.4958962 53.3277585,35.7103266 53.3277585,35.7122497 Z" id="Shape" fill="#FFFFFF" fill-rule="nonzero" mask="url(#mask-3)"></path>
            </g>
        </g>
    </g>
</svg>