<?xml version="1.0" encoding="UTF-8"?>
<svg width="77px" height="77px" viewBox="0 0 77 77" version="1.1" xmlns="http://www.w3.org/2000/svg" xmlns:xlink="http://www.w3.org/1999/xlink">
    <!-- Generator: Sketch 46.2 (44496) - http://www.bohemiancoding.com/sketch -->
    <title>Group 13</title>
    <desc>Created with Sketch.</desc>
    <defs>
        <linearGradient x1="136.805556%" y1="170.719401%" x2="-27.7072483%" y2="-82.9047309%" id="linearGradient-1">
            <stop stop-color="#9D26FF" offset="0%"></stop>
            <stop stop-color="#BC28FB" offset="11.8571918%"></stop>
            <stop stop-color="#DE2AF7" offset="24.603396%"></stop>
            <stop stop-color="#FF5FC4" offset="32.780012%"></stop>
            <stop stop-color="#FBB888" offset="63.1596779%"></stop>
            <stop stop-color="#9DFFFD" offset="78.4438776%"></stop>
            <stop stop-color="#6986EA" offset="97.8245059%"></stop>
            <stop stop-color="#6378E8" offset="100%"></stop>
        </linearGradient>
        <circle id="path-2" cx="36" cy="36" r="36"></circle>
        <filter x="-3.5%" y="-3.5%" width="113.9%" height="113.9%" filterUnits="objectBoundingBox" id="filter-4">
            <feOffset dx="5" dy="5" in="SourceAlpha" result="shadowOffsetOuter1"></feOffset>
            <feColorMatrix values="0 0 0 0 0.0483966314   0 0 0 0 0.0624691743   0 0 0 0 0.215508078  0 0 0 0.213117074 0" type="matrix" in="shadowOffsetOuter1"></feColorMatrix>
        </filter>
    </defs>
    <g id="Page-1" stroke="none" stroke-width="1" fill="none" fill-rule="evenodd">
        <g id="Website" transform="translate(-974.000000, -3341.000000)">
            <g id="Group-13" transform="translate(974.000000, 3341.000000)">
                <g id="Oval-3-Copy">
                    <mask id="mask-3" fill="white">
                        <use xlink:href="#path-2"></use>
                    </mask>
                    <g id="Mask">
                        <use fill="black" fill-opacity="1" filter="url(#filter-4)" xlink:href="#path-2"></use>
                        <use fill="url(#linearGradient-1)" fill-rule="evenodd" xlink:href="#path-2"></use>
                    </g>
                </g>
                <path d="M33.7414879,20.8721344 L33.7414879,20.6510393 C31.2587739,20.6510393 30.517184,19.6100497 30.517184,19.6100497 C30.517184,19.6100497 31.9358777,19.6100497 31.8483609,15.8422203 C31.7608441,12.0743909 33.4881497,11.4801977 34.1514351,11.2360719 C36.0261375,10.5221189 36.9657918,11.6552314 36.9657918,11.6552314 C39.1398939,11.4525608 39.7294809,13.8293334 39.4715366,16.5285364 C39.2135923,19.2277394 40.6967721,19.6515051 40.6967721,19.6515051 C39.6788132,20.6924946 37.5277419,20.6280085 37.5277419,20.6280085 L37.5277419,20.8675283 L37.5277419,20.8675283 L37.5277419,21.5860874 C37.5280819,21.7716427 37.6215043,21.944647 37.7764739,22.0467023 L37.84096,22.0881576 C38.5969204,22.4217012 39.377723,22.6958291 40.1762773,22.908052 C40.6735106,23.0494472 41.1562395,23.2376035 41.6180017,23.4700021 C42.179317,23.7353202 42.560426,24.275516 42.6221421,24.893302 L42.6221421,27.9379661 L28.624057,27.9379661 L28.624057,24.8840897 C28.6884908,24.2632828 29.0753428,23.7223902 29.6420158,23.4607898 C30.1142925,23.2280881 30.6078968,23.0414439 31.1159833,22.9034459 C31.9145431,22.6912409 32.695347,22.4171125 33.4513005,22.0835514 L33.5065743,22.0513084 C33.661544,21.9492532 33.7549663,21.7762488 33.7553063,21.5906936 L33.7414879,20.8721344 Z M43.0459078,42.9816469 L36.7216659,39.3381835 L36.7216659,32.0190136 L34.5383516,32.0190136 L34.5383516,39.2829097 L28.2187159,42.9678285 L29.3103731,44.8609555 L35.5839473,41.2036736 L41.9542506,44.8609555 L43.0459078,42.9816469 Z M23.9764532,46.9475408 C23.9253947,46.9227008 23.893144,46.8707413 23.8935425,46.8139625 L23.8935425,45.2616904 C24.1232301,44.8695165 24.2793314,44.4386767 24.3541574,43.9903935 C24.5337972,43.9903935 24.7641046,43.727843 25.0174427,42.8342502 C25.3490854,41.6596823 25.0174427,41.4524057 24.7180431,41.4524057 C25.4688453,38.0024005 23.5342629,37.9931882 23.5342629,37.9931882 C23.2196136,37.1062959 22.3172393,36.569906 21.3877978,36.7172851 C20.4133344,36.817676 19.4306833,36.8084057 18.4582874,36.6896482 C18.4578424,36.9636516 18.5793921,37.223633 18.78993,37.398995 C17.0580182,38.453803 17.454147,40.7845141 17.610756,41.4524057 C17.3159625,41.4524057 17.0119567,41.6781069 17.3343871,42.8342502 C17.5877253,43.7232368 17.8226389,43.976575 17.9976725,43.9903935 C18.0724984,44.4386767 18.2285998,44.8695165 18.4582874,45.2616904 L18.4582874,46.8139625 C18.4586859,46.8707413 18.4264352,46.9227008 18.3753767,46.9475408 C16.6742413,47.7983264 15.0697197,48.8299149 13.5895885,50.0244479 C13.2156463,50.3329337 12.9993532,50.7925567 13.0000015,51.2773203 L13.0000015,53.5803945 L29.3518284,53.5803945 L29.3518284,51.2773203 C29.3536119,50.7933163 29.1390697,50.3338243 28.7668476,50.0244479 C27.2852465,48.8296648 25.6791711,47.7980702 23.9764532,46.9475408 Z M52.8800347,46.9475408 C52.8289762,46.9227008 52.7967254,46.8707413 52.797124,46.8139625 L52.797124,45.2616904 C53.0268116,44.8695165 53.1829129,44.4386767 53.2577389,43.9903935 C53.4373787,43.9903935 53.6676861,43.727843 53.9210242,42.8342502 C54.2526669,41.6596823 53.9210242,41.4524057 53.6216246,41.4524057 C54.3724268,38.0024005 52.4378444,37.9931882 52.4378444,37.9931882 C52.1231951,37.1062959 51.2208208,36.569906 50.2913793,36.7172851 C49.3169177,36.8177148 48.3342622,36.8084444 47.3618689,36.6896482 C47.3614239,36.9636516 47.4829736,37.223633 47.6935115,37.398995 C45.9615997,38.453803 46.3577285,40.7845141 46.5143375,41.4524057 C46.219544,41.4524057 45.9155382,41.6781069 46.2379686,42.8342502 C46.4913068,43.7232368 46.7262204,43.976575 46.901254,43.9903935 C46.9760799,44.4386767 47.1321813,44.8695165 47.3618689,45.2616904 L47.3618689,46.8139625 C47.3622674,46.8707413 47.3300167,46.9227008 47.2789582,46.9475408 C45.5778228,47.7983264 43.9733012,48.8299149 42.4931699,50.0244479 C42.1209478,50.3338243 41.9064056,50.7933163 41.9081891,51.2773203 L41.9081891,53.5803945 L58.2600161,53.5803945 L58.2600161,51.2773203 C58.2617996,50.7933163 58.0472574,50.3338243 57.6750352,50.0244479 C56.1919852,48.8293854 54.5843529,47.7977827 52.8800347,46.9475408 Z" id="Shape" fill="#FFFFFF" fill-rule="nonzero"></path>
            </g>
        </g>
    </g>
</svg>