<?xml version="1.0" encoding="UTF-8"?>
<svg width="77px" height="77px" viewBox="0 0 77 77" version="1.1" xmlns="http://www.w3.org/2000/svg" xmlns:xlink="http://www.w3.org/1999/xlink">
    <!-- Generator: Sketch 46.2 (44496) - http://www.bohemiancoding.com/sketch -->
    <title>Group 7</title>
    <desc>Created with Sketch.</desc>
    <defs>
        <linearGradient x1="481.32053%" y1="423.931207%" x2="28.4381996%" y2="32.3889492%" id="linearGradient-1">
            <stop stop-color="#9D26FF" offset="0%"></stop>
            <stop stop-color="#DE2AF7" offset="24.603396%"></stop>
            <stop stop-color="#FF5FC4" offset="47.1221301%"></stop>
            <stop stop-color="#FBB888" offset="63.1596779%"></stop>
            <stop stop-color="#3A6CF5" offset="78.4438776%"></stop>
            <stop stop-color="#3F67F4" offset="84.4190131%"></stop>
            <stop stop-color="#BA4DEF" offset="100%"></stop>
        </linearGradient>
        <circle id="path-2" cx="36" cy="36" r="36"></circle>
        <filter x="-3.5%" y="-3.5%" width="113.9%" height="113.9%" filterUnits="objectBoundingBox" id="filter-4">
            <feOffset dx="5" dy="5" in="SourceAlpha" result="shadowOffsetOuter1"></feOffset>
            <feColorMatrix values="0 0 0 0 0.238017083   0 0 0 0 0.284228567   0 0 0 0 0.526838861  0 0 0 0.181357563 0" type="matrix" in="shadowOffsetOuter1"></feColorMatrix>
        </filter>
    </defs>
    <g id="Page-1" stroke="none" stroke-width="1" fill="none" fill-rule="evenodd">
        <g id="Website" transform="translate(-278.000000, -3490.000000)">
            <g id="Group-7" transform="translate(278.000000, 3490.000000)">
                <g id="Oval-3-Copy">
                    <mask id="mask-3" fill="white">
                        <use xlink:href="#path-2"></use>
                    </mask>
                    <g id="Mask">
                        <use fill="black" fill-opacity="1" filter="url(#filter-4)" xlink:href="#path-2"></use>
                        <use fill="url(#linearGradient-1)" fill-rule="evenodd" xlink:href="#path-2"></use>
                    </g>
                </g>
                <g id="Group-2" transform="translate(16.325228, 10.857143)" fill-rule="nonzero" fill="#FFFFFF">
                    <g id="Group" transform="translate(0.000000, 23.056882)">
                        <path d="M40.1967922,11.9441856 C39.368906,7.90923117 37.2873019,4.80375733 33.3813219,3.13213336 C31.6153088,2.37629993 29.8449726,1.6305539 28.078239,0.876161528 C27.7511195,0.736379179 27.4304847,0.579304168 27.0788672,0.417185465 C26.8612679,1.40502877 26.655197,2.33955303 26.4491261,3.27479782 C25.6579869,6.86374566 24.3747273,10.2278889 22.393997,13.275 C22.3673374,13.1136018 22.3399574,12.9529242 22.3125773,12.7922465 C22.2606994,12.4860223 22.2030572,12.1805186 22.1389302,11.8281806 C21.0826368,12.8347577 20.0630903,13.8053083 19.0413822,14.778741 C18.8461192,14.5200716 18.6566204,14.2585201 18.4721654,13.9940865 C19.6696822,13.0458722 20.8131595,12.1401691 21.9537546,11.2323043 C21.9948247,11.1998806 22.027969,11.1314305 22.0207637,11.0853167 C21.9479904,10.6277817 21.8665708,10.1716877 21.7772254,9.65867211 C21.6684257,9.75810492 21.599255,9.81934976 21.533687,9.88203566 C20.5199047,10.8468221 19.5212535,11.824578 18.4851349,12.7706307 C18.292754,12.9464394 18.1291943,13.1244097 18.0160714,13.3203932 C16.372548,10.8122368 15.1779133,8.08287831 14.4055078,5.14889003 C13.9976892,3.59975575 13.6554386,2.03332881 13.2757205,0.444565512 C11.0175871,1.41727774 8.78395164,2.35828675 6.57121146,3.34468899 C5.91336979,3.63794371 5.26201286,3.99460486 4.69423714,4.43340616 C1.659375,6.7787234 0.154192901,9.91950309 0.0187337169,13.7267708 C-0.0381879614,15.3249009 0.316311604,15.7759512 1.84022742,16.2450147 C2.00522823,16.2961721 2.17455221,16.3386832 2.34387619,16.3696659 C6.32839367,17.0981193 10.3338064,17.6601308 14.3723635,18.0016609 C18.8360318,18.3792173 23.295377,18.3331036 27.739591,17.8417038 C30.8846939,17.4944095 34.0146657,17.0030097 37.1439169,16.5289025 C37.9127198,16.4121771 38.6692738,16.1549487 39.4006093,15.8804277 C39.9186686,15.6858853 40.3293693,15.2737435 40.3300898,14.6749851 C40.3322514,13.7642382 40.3783652,12.8275524 40.1967922,11.9441856 Z" id="Shape"></path>
                        <path d="M19.3014926,4.1444746 C19.4189386,4.24606899 19.4794629,4.33037071 19.4506418,4.47951992 C19.3677812,4.90967488 19.3036542,5.34271195 19.2229551,5.83339123 C19.7921719,5.3830615 20.3123928,4.97308131 20.8282905,4.55949848 C20.8650375,4.52995685 20.8772864,4.47807886 20.9010638,4.43628827 C20.9579855,4.33613493 20.9911298,4.21796841 21.074711,4.13943091 C21.4875733,3.75034602 21.9458288,3.3944054 22.3262674,2.98370468 C22.7283218,2.54922655 22.6555485,2.34459672 22.1165938,2.03549039 C22.1007422,2.02684406 22.0848906,2.0174772 22.0683185,2.0095514 C20.787941,1.38269241 19.5075635,1.38413347 18.2437581,2.03476987 C17.6896724,2.32009878 17.6233839,2.54562391 18.0225562,2.97794046 C18.408759,3.39512592 18.8634119,3.7654771 19.3014926,4.1444746 Z" id="Shape"></path>
                        <path d="M18.4772091,10.3021032 C18.3957895,10.7293761 18.3222956,11.1573695 18.2423171,11.6055376 C18.3057235,11.5853628 18.3258983,11.5839218 18.3381473,11.5745549 C19.4074102,10.7293761 20.4773936,9.88491777 21.5423334,9.03613629 C21.5956524,8.99362516 21.6460893,8.91004396 21.637443,8.85240176 C21.5725955,8.41071836 21.4933375,7.97119654 21.4133589,7.50357414 C21.3571578,7.54248263 21.3261751,7.55905477 21.3031182,7.58139112 C20.3916508,8.44890632 19.4816245,9.31642152 18.5715982,10.1846572 C18.5348513,10.2192426 18.4851349,10.2588716 18.4772091,10.3021032 Z" id="Shape"></path>
                        <path d="M21.2606071,6.63677947 C21.1993622,6.2116682 21.1251479,5.78871852 21.0552567,5.36432778 C21.0264356,5.34991723 20.9983351,5.33550668 20.9695139,5.32109612 C20.919077,5.38738466 20.8772864,5.46087847 20.8167621,5.51924121 C20.331847,5.98542255 19.859181,6.46169127 19.3504885,6.90769784 C19.0694827,7.15411827 18.9160104,7.421434 18.8857482,7.76224354 C18.8590887,8.06270354 18.7985644,8.36028143 18.7517301,8.66650564 C18.8072107,8.66290301 18.8187391,8.66578512 18.8237828,8.66146195 C19.6098784,8.04252877 20.3974151,7.42431611 21.1791875,6.80178029 C21.2267423,6.76431285 21.2678124,6.68937799 21.2606071,6.63677947 Z" id="Shape"></path>
                    </g>
                    <g id="Group" transform="translate(14.410551, 0.000000)">
                        <path d="M3.13789758,14.4191978 C3.04855216,14.1879084 2.97938151,13.9270775 2.93038564,13.6374254 C2.88138976,13.3477733 2.85689183,13.0739728 2.85689183,12.8153034 C2.85689183,12.4053232 2.89724137,12.0313694 2.97721993,11.6927215 C3.05719849,11.3540735 3.1775266,11.0356003 3.33820424,10.7373019 C3.49888189,10.4390035 3.69918856,10.1536746 3.93984477,9.88203566 C4.18050098,9.61039677 4.4607862,9.34091945 4.7821415,9.07360372 C5.12078946,8.7882748 5.41692629,8.52384119 5.670552,8.27814128 C5.9241777,8.03316191 6.14033597,7.78818253 6.31902681,7.54320316 C6.49699712,7.29822378 6.63101525,7.04459808 6.71964014,6.78160551 C6.80826503,6.51861295 6.85293774,6.22679928 6.85293774,5.90616451 C6.85293774,5.63020245 6.80394187,5.37369464 6.70595012,5.13808212 C6.60795837,4.9024696 6.46745549,4.69928083 6.28516202,4.52995685 C6.10214801,4.36063287 5.87950499,4.22733527 5.61723296,4.12934352 C5.35424039,4.03135177 5.06242673,3.98235589 4.74179196,3.98235589 C4.04720338,3.98235589 3.32523475,4.12718194 2.5766066,4.41683402 C2.56940132,4.41971613 2.56147552,4.42259824 2.55427025,4.42548035 C1.54625217,4.82032946 0.451770788,4.12646141 0.451770788,3.04350847 L0.451770788,2.64073355 C0.451770788,2.04413672 0.79546244,1.49077155 1.34162234,1.25083587 C1.77249783,1.06133711 2.22426862,0.907144214 2.6969347,0.787536637 C3.50752822,0.582906806 4.34478126,0.479871363 5.20941435,0.479871363 C6.03802106,0.479871363 6.80826503,0.571378365 7.52158733,0.753671841 C8.2341891,0.936685845 8.8560044,1.22345582 9.38559216,1.61542282 C9.91590046,2.00738982 10.3302038,2.50887701 10.6285022,3.11916386 C10.9268006,3.72945072 11.0759498,4.46222726 11.0759498,5.31749349 C11.0759498,5.86077128 11.0132639,6.35289161 10.8886127,6.79457501 C10.7639614,7.23553789 10.5809474,7.65200282 10.3410117,8.04396982 C10.1003555,8.43593682 9.8020571,8.81205221 9.44539595,9.17303653 C9.0887348,9.53402084 8.67875461,9.90581307 8.21617591,10.2891337 C7.90418747,10.5478031 7.630387,10.7884593 7.39405395,11.0111024 C7.15772091,11.2337454 6.96173741,11.4542268 6.80610345,11.6725467 C6.6504695,11.8908665 6.53230297,12.1228764 6.45232441,12.3671353 C6.37234585,12.6121146 6.33199631,12.8909588 6.33199631,13.2022267 C6.33199631,13.4162234 6.36081741,13.6345433 6.41918015,13.8571863 C6.47682235,14.0798293 6.55463933,14.2671665 6.65335161,14.4184773 L3.13789758,14.4184773 L3.13789758,14.4191978 Z" id="Shape"></path>
                        <path d="M5.08908625,20.2727638 C4.37648448,20.2727638 3.78349028,20.0587671 3.31154472,19.6314942 C2.83887864,19.1862082 2.60326612,18.6602231 2.60326612,18.0542594 C2.60326612,17.431003 2.83887864,16.9093411 3.31154472,16.4907146 C3.78349028,16.072088 4.37576395,15.8624145 5.08908625,15.8624145 C5.79304168,15.8624145 6.37666902,16.072088 6.83996825,16.4907146 C7.30326748,16.9006947 7.53455683,17.4216362 7.53455683,18.0542594 C7.53455683,18.6955289 7.30759064,19.2258372 6.85293774,19.6444637 C6.39035904,20.0630903 5.80168802,20.2727638 5.08908625,20.2727638 Z" id="Shape"></path>
                    </g>
                </g>
            </g>
        </g>
    </g>
</svg>