<svg xmlns="http://www.w3.org/2000/svg" width="395" height="443" viewBox="0 0 395 443">
    <g fill="#FEA99B" fill-rule="evenodd">
        <g transform="translate(215 228)">
            <circle cx="25.5" cy="33.5" r="3.5"/>
            <circle cx="79.5" cy="43.5" r="3.5"/>
            <circle cx="131.5" cy="14.5" r="3.5"/>
            <circle cx="134.5" cy="85.5" r="3.5"/>
            <circle cx="68.5" cy="119.5" r="3.5"/>
            <circle cx="3.5" cy="101.5" r="3.5"/>
            <circle cx="48.5" cy="176.5" r="3.5"/>
            <circle cx="116.5" cy="173.5" r="3.5"/>
            <circle cx="70.5" cy="22.5" r="3.5"/>
            <circle cx="124.5" cy="32.5" r="3.5"/>
            <circle cx="176.5" cy="3.5" r="3.5"/>
            <circle cx="179.5" cy="74.5" r="3.5"/>
            <circle cx="113.5" cy="108.5" r="3.5"/>
            <circle cx="48.5" cy="90.5" r="3.5"/>
            <circle cx="93.5" cy="165.5" r="3.5"/>
            <circle cx="161.5" cy="162.5" r="3.5"/>
            <circle cx="50.5" cy="42.5" r="3.5"/>
            <circle cx="104.5" cy="52.5" r="3.5"/>
            <circle cx="156.5" cy="23.5" r="3.5"/>
            <circle cx="159.5" cy="94.5" r="3.5"/>
            <circle cx="93.5" cy="128.5" r="3.5"/>
            <circle cx="28.5" cy="110.5" r="3.5"/>
            <circle cx="73.5" cy="185.5" r="3.5"/>
            <circle cx="141.5" cy="182.5" r="3.5"/>
            <circle cx="61.5" cy="64.5" r="3.5"/>
            <circle cx="115.5" cy="74.5" r="3.5"/>
            <circle cx="167.5" cy="45.5" r="3.5"/>
            <circle cx="170.5" cy="116.5" r="3.5"/>
            <circle cx="104.5" cy="150.5" r="3.5"/>
            <circle cx="39.5" cy="132.5" r="3.5"/>
            <circle cx="84.5" cy="207.5" r="3.5"/>
            <circle cx="152.5" cy="204.5" r="3.5"/>
            <circle cx="37.5" cy="68.5" r="3.5"/>
            <circle cx="91.5" cy="78.5" r="3.5"/>
            <circle cx="143.5" cy="49.5" r="3.5"/>
            <circle cx="146.5" cy="120.5" r="3.5"/>
            <circle cx="80.5" cy="154.5" r="3.5"/>
            <circle cx="15.5" cy="136.5" r="3.5"/>
            <circle cx="60.5" cy="211.5" r="3.5"/>
            <circle cx="128.5" cy="208.5" r="3.5"/>
        </g>
        <g transform="translate(362 66)">
            <circle cx="25.5" cy="33.5" r="3.5"/>
            <circle cx="3.5" cy="101.5" r="3.5"/>
            <circle cx="28.5" cy="110.5" r="3.5"/>
            <circle cx="15.5" cy="136.5" r="3.5"/>
        </g>
        <g transform="translate(193)">
            <circle cx="25.5" cy="33.5" r="3.5"/>
            <circle cx="79.5" cy="43.5" r="3.5"/>
            <circle cx="131.5" cy="14.5" r="3.5"/>
            <circle cx="134.5" cy="85.5" r="3.5"/>
            <circle cx="68.5" cy="119.5" r="3.5"/>
            <circle cx="3.5" cy="101.5" r="3.5"/>
            <circle cx="48.5" cy="176.5" r="3.5"/>
            <circle cx="116.5" cy="173.5" r="3.5"/>
            <circle cx="70.5" cy="22.5" r="3.5"/>
            <circle cx="124.5" cy="32.5" r="3.5"/>
            <circle cx="176.5" cy="3.5" r="3.5"/>
            <circle cx="179.5" cy="74.5" r="3.5"/>
            <circle cx="113.5" cy="108.5" r="3.5"/>
            <circle cx="48.5" cy="90.5" r="3.5"/>
            <circle cx="93.5" cy="165.5" r="3.5"/>
            <circle cx="161.5" cy="162.5" r="3.5"/>
            <circle cx="50.5" cy="42.5" r="3.5"/>
            <circle cx="104.5" cy="52.5" r="3.5"/>
            <circle cx="156.5" cy="23.5" r="3.5"/>
            <circle cx="159.5" cy="94.5" r="3.5"/>
            <circle cx="93.5" cy="128.5" r="3.5"/>
            <circle cx="28.5" cy="110.5" r="3.5"/>
            <circle cx="73.5" cy="185.5" r="3.5"/>
            <circle cx="141.5" cy="182.5" r="3.5"/>
            <circle cx="61.5" cy="64.5" r="3.5"/>
            <circle cx="115.5" cy="74.5" r="3.5"/>
            <circle cx="167.5" cy="45.5" r="3.5"/>
            <circle cx="170.5" cy="116.5" r="3.5"/>
            <circle cx="104.5" cy="150.5" r="3.5"/>
            <circle cx="39.5" cy="132.5" r="3.5"/>
            <circle cx="84.5" cy="207.5" r="3.5"/>
            <circle cx="152.5" cy="204.5" r="3.5"/>
            <circle cx="37.5" cy="68.5" r="3.5"/>
            <circle cx="91.5" cy="78.5" r="3.5"/>
            <circle cx="143.5" cy="49.5" r="3.5"/>
            <circle cx="146.5" cy="120.5" r="3.5"/>
            <circle cx="80.5" cy="154.5" r="3.5"/>
            <circle cx="15.5" cy="136.5" r="3.5"/>
            <circle cx="60.5" cy="211.5" r="3.5"/>
            <circle cx="128.5" cy="208.5" r="3.5"/>
        </g>
        <g transform="translate(0 13)">
            <circle cx="25.5" cy="33.5" r="3.5"/>
            <circle cx="79.5" cy="43.5" r="3.5"/>
            <circle cx="131.5" cy="14.5" r="3.5"/>
            <circle cx="134.5" cy="85.5" r="3.5"/>
            <circle cx="68.5" cy="119.5" r="3.5"/>
            <circle cx="3.5" cy="101.5" r="3.5"/>
            <circle cx="48.5" cy="176.5" r="3.5"/>
            <circle cx="116.5" cy="173.5" r="3.5"/>
            <circle cx="70.5" cy="22.5" r="3.5"/>
            <circle cx="124.5" cy="32.5" r="3.5"/>
            <circle cx="176.5" cy="3.5" r="3.5"/>
            <circle cx="179.5" cy="74.5" r="3.5"/>
            <circle cx="113.5" cy="108.5" r="3.5"/>
            <circle cx="48.5" cy="90.5" r="3.5"/>
            <circle cx="93.5" cy="165.5" r="3.5"/>
            <circle cx="161.5" cy="162.5" r="3.5"/>
            <circle cx="50.5" cy="42.5" r="3.5"/>
            <circle cx="104.5" cy="52.5" r="3.5"/>
            <circle cx="156.5" cy="23.5" r="3.5"/>
            <circle cx="159.5" cy="94.5" r="3.5"/>
            <circle cx="93.5" cy="128.5" r="3.5"/>
            <circle cx="28.5" cy="110.5" r="3.5"/>
            <circle cx="73.5" cy="185.5" r="3.5"/>
            <circle cx="141.5" cy="182.5" r="3.5"/>
            <circle cx="61.5" cy="64.5" r="3.5"/>
            <circle cx="115.5" cy="74.5" r="3.5"/>
            <circle cx="167.5" cy="45.5" r="3.5"/>
            <circle cx="170.5" cy="116.5" r="3.5"/>
            <circle cx="104.5" cy="150.5" r="3.5"/>
            <circle cx="39.5" cy="132.5" r="3.5"/>
            <circle cx="84.5" cy="207.5" r="3.5"/>
            <circle cx="152.5" cy="204.5" r="3.5"/>
            <circle cx="37.5" cy="68.5" r="3.5"/>
            <circle cx="91.5" cy="78.5" r="3.5"/>
            <circle cx="143.5" cy="49.5" r="3.5"/>
            <circle cx="146.5" cy="120.5" r="3.5"/>
            <circle cx="80.5" cy="154.5" r="3.5"/>
            <circle cx="15.5" cy="136.5" r="3.5"/>
            <circle cx="60.5" cy="211.5" r="3.5"/>
            <circle cx="128.5" cy="208.5" r="3.5"/>
        </g>
        <g transform="translate(29 228)">
            <circle cx="25.5" cy="33.5" r="3.5"/>
            <circle cx="79.5" cy="43.5" r="3.5"/>
            <circle cx="131.5" cy="14.5" r="3.5"/>
            <circle cx="134.5" cy="85.5" r="3.5"/>
            <circle cx="68.5" cy="119.5" r="3.5"/>
            <circle cx="3.5" cy="101.5" r="3.5"/>
            <circle cx="48.5" cy="176.5" r="3.5"/>
            <circle cx="116.5" cy="173.5" r="3.5"/>
            <circle cx="70.5" cy="22.5" r="3.5"/>
            <circle cx="124.5" cy="32.5" r="3.5"/>
            <circle cx="176.5" cy="3.5" r="3.5"/>
            <circle cx="179.5" cy="74.5" r="3.5"/>
            <circle cx="113.5" cy="108.5" r="3.5"/>
            <circle cx="48.5" cy="90.5" r="3.5"/>
            <circle cx="93.5" cy="165.5" r="3.5"/>
            <circle cx="161.5" cy="162.5" r="3.5"/>
            <circle cx="50.5" cy="42.5" r="3.5"/>
            <circle cx="104.5" cy="52.5" r="3.5"/>
            <circle cx="156.5" cy="23.5" r="3.5"/>
            <circle cx="159.5" cy="94.5" r="3.5"/>
            <circle cx="93.5" cy="128.5" r="3.5"/>
            <circle cx="28.5" cy="110.5" r="3.5"/>
            <circle cx="73.5" cy="185.5" r="3.5"/>
            <circle cx="141.5" cy="182.5" r="3.5"/>
            <circle cx="61.5" cy="64.5" r="3.5"/>
            <circle cx="115.5" cy="74.5" r="3.5"/>
            <circle cx="167.5" cy="45.5" r="3.5"/>
            <circle cx="170.5" cy="116.5" r="3.5"/>
            <circle cx="104.5" cy="150.5" r="3.5"/>
            <circle cx="39.5" cy="132.5" r="3.5"/>
            <circle cx="84.5" cy="207.5" r="3.5"/>
            <circle cx="152.5" cy="204.5" r="3.5"/>
            <circle cx="37.5" cy="68.5" r="3.5"/>
            <circle cx="91.5" cy="78.5" r="3.5"/>
            <circle cx="143.5" cy="49.5" r="3.5"/>
            <circle cx="146.5" cy="120.5" r="3.5"/>
            <circle cx="80.5" cy="154.5" r="3.5"/>
            <circle cx="15.5" cy="136.5" r="3.5"/>
            <circle cx="60.5" cy="211.5" r="3.5"/>
            <circle cx="128.5" cy="208.5" r="3.5"/>
        </g>
    </g>
</svg>
