<svg xmlns="http://www.w3.org/2000/svg" width="131" height="296" viewBox="0 0 131 296">
    <g fill="none" fill-rule="evenodd" stroke="#E6A8E1" stroke-linecap="square" stroke-width="10" opacity=".491">
        <path d="M-9 295.04L10.318 284M-4 87.04L15.318 76M10 171.605L14.558 169M5 192.605L9.558 190M-1 214.605L3.558 212M13 114.04L32.318 103M65 141.04L84.318 130M82 168.04L101.318 157M32 85.04L51.318 74M48 112.04L67.318 101M27 142.04L46.318 131M44 171.04L63.318 160M15 57.085L23.9 52M53 53.605L57.558 51M59 31.605L63.558 29M81 37.605L85.558 35M101 44.605L105.558 42M75 58.605L79.558 56M22 220.605L26.558 218M113 93.605L117.558 91M17 242.605L21.558 240M108 115.605l4.558-2.605M28 198.605L32.558 196M119 71.605L123.558 69M69 81.605L73.558 79M96 65.605L100.558 63M90 87.605L94.558 85M85 109.605L89.558 107M65 9.605L69.558 7M22 33.605L26.558 31M29 10.605L33.558 8" opacity=".499"/>
    </g>
</svg>
