<svg xmlns="http://www.w3.org/2000/svg" width="20" height="17" viewBox="0 0 20 17">
    <path fill="#C0CAD6" fill-rule="evenodd" d="M4.297 4.46c3.16 1.51 5.832 1.423 5.832 1.423S9.116 2.542 12.247 1.06c3.13-1.481 5.284 1.017 5.284 1.017s.546-.142.953-.284c.406-.142.995-.395.995-.395l-.964 1.63L20 2.878s-.183.254-.778.77c-.594.516-.839.783-.839.783s.212 4.021-2.025 7.117c-2.238 3.096-5.13 4.954-9.33 5.345s-6.936-1.22-6.936-1.22 1.837-.099 3.008-.523c1.17-.423 2.854-1.54 2.854-1.54S3.56 12.914 2.7 12.13c-.86-.785-1.074-1.25-1.074-1.25l2.363-.03S1.504 9.603.798 8.615C.092 7.626 0 6.668 0 6.668l1.817.694S.307 5.418.092 3.908c-.215-1.51.276-2.324.276-2.324s.768 1.365 3.929 2.875z"/>
</svg>
